<svg width="64" height="64" xmlns="http://www.w3.org/2000/svg">
 <g>
  <title>Layer 1</title>
  <g id="svg_2">
   <mask id="svg_1" maskUnits="userSpaceOnUse" x="47" y="10.7949" width="87" height="21" fill="black">
    <rect id="svg_3" fill="white" x="47" y="10.7949" width="87" height="21"/>
    <path id="svg_4" d="m55.1796,25.1956c-1.9434,0 -3.5538,-0.3748 -4.8314,-1.1245c-1.2776,-0.7497 -2.0603,-1.804 -2.3482,-3.1628l2.2942,0c0.2879,0.8746 0.8187,1.4994 1.5925,1.8742c0.7917,0.3749 1.8893,0.5623 3.2929,0.5623c1.1336,0 2.0513,-0.164 2.753,-0.492c0.7198,-0.3436 1.0797,-0.82 1.0797,-1.4291c0,-0.3748 -0.18,-0.6872 -0.5399,-0.9371c-0.3598,-0.2655 -0.7467,-0.4529 -1.1606,-0.5623c-0.4138,-0.1093 -1.1246,-0.2733 -2.1322,-0.4919c-0.234,-0.0469 -0.4139,-0.0859 -0.5399,-0.1172c-2.2312,-0.4842 -3.7697,-0.9605 -4.6154,-1.4291c-0.8457,-0.4685 -1.2686,-1.2026 -1.2686,-2.2022c0,-1.2183 0.5489,-2.171 1.6465,-2.8582c1.1156,-0.6872 2.5731,-1.0308 4.3725,-1.0308c1.7274,0 3.1309,0.328 4.2106,0.9839c1.0976,0.6404 1.7994,1.5463 2.1052,2.7177l-2.2672,0c-0.5398,-1.2339 -1.8713,-1.8508 -3.9946,-1.8508c-1.1696,0 -2.0963,0.1796 -2.7801,0.5388c-0.6837,0.3436 -1.0256,0.7966 -1.0256,1.3588c0,0.4842 0.2789,0.8434 0.8367,1.0777c0.5578,0.2187 1.6734,0.5154 3.3469,0.8903c0.7917,0.1718 1.3855,0.3045 1.7813,0.3982c0.4139,0.0938 0.8997,0.2265 1.4575,0.3983c0.5759,0.1718 0.9987,0.3358 1.2686,0.492c0.2699,0.1562 0.5488,0.3592 0.8367,0.6091c0.2879,0.2343 0.4859,0.5076 0.5938,0.82c0.108,0.2968 0.162,0.6404 0.162,1.0308c0,1.2651 -0.5848,2.2413 -1.7544,2.9285c-1.1516,0.6716 -2.6091,1.0074 -4.3725,1.0074z"/>
    <path id="svg_5" d="m81.1525,12.0526l2.2403,0l-4.3725,12.8853l-2.6991,0l-1.4575,-4.3342l-1.9164,-6.5363l-0.4048,0l-1.9164,6.5363l-1.4845,4.3342l-2.6991,0l-4.3725,-12.8853l2.2403,0l1.3765,4.053l2.1593,6.8175l2.1322,-6.8175l1.3766,-4.053l2.753,0l1.3766,4.053l2.1322,6.7941l2.1593,-6.7941l1.3765,-4.053z"/>
    <path id="svg_6" d="m91.4734,11.7949c2.3032,0 4.1385,0.6794 5.5061,2.0382c1.3675,1.3588 2.0063,3.1081 1.9163,5.2478l-12.7126,0c0.1079,1.3276 0.6567,2.3741 1.6464,3.1394c0.9897,0.7653 2.2402,1.1479 3.7517,1.1479c2.2133,0 3.7607,-0.7497 4.6424,-2.249l2.3213,0c-0.6118,1.3275 -1.5385,2.3427 -2.7801,3.0456c-1.2416,0.6872 -2.6631,1.0308 -4.2645,1.0308c-2.2133,0 -4.0397,-0.6169 -5.4792,-1.8508c-1.4215,-1.2495 -2.1323,-2.8504 -2.1323,-4.8027c0,-1.9523 0.7108,-3.561 2.1323,-4.8261c1.4215,-1.2808 3.2389,-1.9211 5.4522,-1.9211zm0,1.8273c-1.3316,0 -2.4652,0.3358 -3.4009,1.0074c-0.9177,0.6716 -1.5115,1.5463 -1.7814,2.624l10.1756,0c-0.252,-1.0933 -0.8188,-1.968 -1.7005,-2.624c-0.8817,-0.6716 -1.9793,-1.0074 -3.2928,-1.0074z"/>
    <path id="svg_7" d="m108.215,11.7949c2.303,0 4.139,0.6794 5.506,2.0382c1.368,1.3588 2.006,3.1081 1.917,5.2478l-12.713,0c0.108,1.3276 0.657,2.3741 1.646,3.1394c0.99,0.7653 2.241,1.1479 3.752,1.1479c2.213,0 3.761,-0.7497 4.642,-2.249l2.322,0c-0.612,1.3275 -1.539,2.3427 -2.78,3.0456c-1.242,0.6872 -2.664,1.0308 -4.265,1.0308c-2.213,0 -4.04,-0.6169 -5.479,-1.8508c-1.422,-1.2495 -2.132,-2.8504 -2.132,-4.8027c0,-1.9523 0.71,-3.561 2.132,-4.8261c1.421,-1.2808 3.239,-1.9211 5.452,-1.9211zm0,1.8273c-1.332,0 -2.465,0.3358 -3.401,1.0074c-0.917,0.6716 -1.511,1.5463 -1.781,2.624l10.175,0c-0.252,-1.0933 -0.818,-1.968 -1.7,-2.624c-0.882,-0.6716 -1.979,-1.0074 -3.293,-1.0074z"/>
    <path id="svg_11" d="m126.063,11.7949c2.016,0 3.671,0.6325 4.967,1.8976c1.313,1.2495 1.97,2.8504 1.97,4.8027c0,1.9524 -0.657,3.5611 -1.97,4.8262c-1.314,1.2495 -2.978,1.8742 -4.994,1.8742c-1.259,0 -2.384,-0.2499 -3.373,-0.7497c-0.972,-0.5154 -1.746,-1.2182 -2.322,-2.1085l0,8.4575l-2.24,0l0,-18.7423l2.24,0l-0.027,2.3628c0.576,-0.9058 2.01,-1.6573 2.376,-1.8474c0.989,-0.5154 2.114,-0.7731 3.373,-0.7731zm-0.431,11.5499c1.493,0 2.717,-0.4529 3.67,-1.3588c0.954,-0.9059 1.431,-2.0695 1.431,-3.4908c0,-1.4056 -0.477,-2.5614 -1.431,-3.4673c-0.953,-0.9215 -2.177,-1.3822 -3.67,-1.3822c-1.53,0 -2.799,0.4607 -3.806,1.3822c-1.008,0.9059 -1.512,2.0617 -1.512,3.4673c0,1.4057 0.504,2.5693 1.512,3.4908c1.007,0.9059 2.276,1.3588 3.806,1.3588z"/>
   </mask>
   <g id="svg_12">
    <mask id="svg_8" maskUnits="userSpaceOnUse" x="47" y="10.7949" width="87" height="21" fill="black">
     <rect id="svg_13" fill="white" x="47" y="10.7949" width="87" height="21"/>
     <path id="svg_14" d="m55.1796,25.1956c-1.9434,0 -3.5538,-0.3748 -4.8314,-1.1245c-1.2776,-0.7497 -2.0603,-1.804 -2.3482,-3.1628l2.2942,0c0.2879,0.8746 0.8187,1.4994 1.5925,1.8742c0.7917,0.3749 1.8893,0.5623 3.2929,0.5623c1.1336,0 2.0513,-0.164 2.753,-0.492c0.7198,-0.3436 1.0797,-0.82 1.0797,-1.4291c0,-0.3748 -0.18,-0.6872 -0.5399,-0.9371c-0.3598,-0.2655 -0.7467,-0.4529 -1.1606,-0.5623c-0.4138,-0.1093 -1.1246,-0.2733 -2.1322,-0.4919c-0.234,-0.0469 -0.4139,-0.0859 -0.5399,-0.1172c-2.2312,-0.4842 -3.7697,-0.9605 -4.6154,-1.4291c-0.8457,-0.4685 -1.2686,-1.2026 -1.2686,-2.2022c0,-1.2183 0.5489,-2.171 1.6465,-2.8582c1.1156,-0.6872 2.5731,-1.0308 4.3725,-1.0308c1.7274,0 3.1309,0.328 4.2106,0.9839c1.0976,0.6404 1.7994,1.5463 2.1052,2.7177l-2.2672,0c-0.5398,-1.2339 -1.8713,-1.8508 -3.9946,-1.8508c-1.1696,0 -2.0963,0.1796 -2.7801,0.5388c-0.6837,0.3436 -1.0256,0.7966 -1.0256,1.3588c0,0.4842 0.2789,0.8434 0.8367,1.0777c0.5578,0.2187 1.6734,0.5154 3.3469,0.8903c0.7917,0.1718 1.3855,0.3045 1.7813,0.3982c0.4139,0.0938 0.8997,0.2265 1.4575,0.3983c0.5759,0.1718 0.9987,0.3358 1.2686,0.492c0.2699,0.1562 0.5488,0.3592 0.8367,0.6091c0.2879,0.2343 0.4859,0.5076 0.5938,0.82c0.108,0.2968 0.162,0.6404 0.162,1.0308c0,1.2651 -0.5848,2.2413 -1.7544,2.9285c-1.1516,0.6716 -2.6091,1.0074 -4.3725,1.0074z"/>
     <path id="svg_15" d="m81.1525,12.0526l2.2403,0l-4.3725,12.8853l-2.6991,0l-1.4575,-4.3342l-1.9164,-6.5363l-0.4048,0l-1.9164,6.5363l-1.4845,4.3342l-2.6991,0l-4.3725,-12.8853l2.2403,0l1.3765,4.053l2.1593,6.8175l2.1322,-6.8175l1.3766,-4.053l2.753,0l1.3766,4.053l2.1322,6.7941l2.1593,-6.7941l1.3765,-4.053z"/>
     <path id="svg_17" d="m91.4734,11.7949c2.3032,0 4.1385,0.6794 5.5061,2.0382c1.3675,1.3588 2.0063,3.1081 1.9163,5.2478l-12.7126,0c0.1079,1.3276 0.6567,2.3741 1.6464,3.1394c0.9897,0.7653 2.2402,1.1479 3.7517,1.1479c2.2133,0 3.7607,-0.7497 4.6424,-2.249l2.3213,0c-0.6118,1.3275 -1.5385,2.3427 -2.7801,3.0456c-1.2416,0.6872 -2.6631,1.0308 -4.2645,1.0308c-2.2133,0 -4.0397,-0.6169 -5.4792,-1.8508c-1.4215,-1.2495 -2.1323,-2.8504 -2.1323,-4.8027c0,-1.9523 0.7108,-3.561 2.1323,-4.8261c1.4215,-1.2808 3.2389,-1.9211 5.4522,-1.9211zm0,1.8273c-1.3316,0 -2.4652,0.3358 -3.4009,1.0074c-0.9177,0.6716 -1.5115,1.5463 -1.7814,2.624l10.1756,0c-0.252,-1.0933 -0.8188,-1.968 -1.7005,-2.624c-0.8817,-0.6716 -1.9793,-1.0074 -3.2928,-1.0074z"/>
     <path id="svg_18" d="m108.215,11.7949c2.303,0 4.139,0.6794 5.506,2.0382c1.368,1.3588 2.006,3.1081 1.917,5.2478l-12.713,0c0.108,1.3276 0.657,2.3741 1.646,3.1394c0.99,0.7653 2.241,1.1479 3.752,1.1479c2.213,0 3.761,-0.7497 4.642,-2.249l2.322,0c-0.612,1.3275 -1.539,2.3427 -2.78,3.0456c-1.242,0.6872 -2.664,1.0308 -4.265,1.0308c-2.213,0 -4.04,-0.6169 -5.479,-1.8508c-1.422,-1.2495 -2.132,-2.8504 -2.132,-4.8027c0,-1.9523 0.71,-3.561 2.132,-4.8261c1.421,-1.2808 3.239,-1.9211 5.452,-1.9211zm0,1.8273c-1.332,0 -2.465,0.3358 -3.401,1.0074c-0.917,0.6716 -1.511,1.5463 -1.781,2.624l10.175,0c-0.252,-1.0933 -0.818,-1.968 -1.7,-2.624c-0.882,-0.6716 -1.979,-1.0074 -3.293,-1.0074z"/>
     <path id="svg_19" d="m126.063,11.7949c2.016,0 3.671,0.6325 4.967,1.8976c1.313,1.2495 1.97,2.8504 1.97,4.8027c0,1.9524 -0.657,3.5611 -1.97,4.8262c-1.314,1.2495 -2.978,1.8742 -4.994,1.8742c-1.259,0 -2.384,-0.2499 -3.373,-0.7497c-0.972,-0.5154 -1.746,-1.2182 -2.322,-2.1085l0,8.4575l-2.24,0l0,-18.7423l2.24,0l-0.027,2.3628c0.576,-0.9058 2.01,-1.6573 2.376,-1.8474c0.989,-0.5154 2.114,-0.7731 3.373,-0.7731zm-0.431,11.5499c1.493,0 2.717,-0.4529 3.67,-1.3588c0.954,-0.9059 1.431,-2.0695 1.431,-3.4908c0,-1.4056 -0.477,-2.5614 -1.431,-3.4673c-0.953,-0.9215 -2.177,-1.3822 -3.67,-1.3822c-1.53,0 -2.799,0.4607 -3.806,1.3822c-1.008,0.9059 -1.512,2.0617 -1.512,3.4673c0,1.4057 0.504,2.5693 1.512,3.4908c1.007,0.9059 2.276,1.3588 3.806,1.3588z"/>
    </mask>
    <path id="svg_20" d="m1054.55113,391.6947c-17.67601,0 -32.32325,-3.40896 -43.94353,-10.22778c-11.62029,-6.81882 -18.73926,-16.40811 -21.35783,-28.76694l20.86668,0c2.61857,7.95484 7.44641,13.63765 14.48443,17.04661c7.20083,3.40987 17.18395,5.11435 29.95026,5.11435c10.31055,0 18.6574,-1.49165 25.03965,-4.47494c6.54687,-3.12518 9.82031,-7.45823 9.82031,-12.99824c0,-3.40896 -1.63717,-6.25036 -4.91061,-8.5233c-3.27253,-2.41483 -6.79154,-4.11931 -10.55613,-5.11435c-3.76368,-0.99413 -10.22869,-2.48577 -19.39322,-4.47403c-2.12832,-0.42657 -3.76459,-0.7813 -4.91061,-1.06598c-20.29367,-4.40399 -34.28694,-8.73614 -41.97893,-12.99824c-7.69198,-4.2612 -11.53843,-10.93813 -11.53843,-20.0299c0,-11.08093 4.99247,-19.74612 14.97558,-25.99648c10.14683,-6.25036 23.40338,-9.37554 39.76965,-9.37554c15.7114,0 28.4768,2.98329 38.29711,8.94897c9.98312,5.8247 16.36627,14.06422 19.14764,24.71858l-20.6211,0c-4.9097,-11.22282 -17.02023,-16.83377 -36.3325,-16.83377c-10.63798,0 -19.0667,1.63353 -25.28613,4.9006c-6.21853,3.12518 -9.32825,7.2454 -9.32825,12.35883c0,4.40399 2.53671,7.67106 7.61012,9.80212c5.07342,1.98916 15.22025,4.68777 30.44141,8.09764c7.20083,1.56259 12.60168,2.76955 16.20164,3.62179c3.76459,0.85315 8.18313,2.06011 13.25655,3.6227c5.23804,1.56259 9.08358,3.05424 11.53843,4.47494c2.45485,1.4207 4.99156,3.26707 7.61012,5.54001c2.61857,2.13105 4.41946,4.61683 5.40085,7.45823c0.9823,2.69952 1.47346,5.8247 1.47346,9.37554c0,11.5066 -5.31899,20.38553 -15.95698,26.63589c-10.47427,6.10847 -23.73082,9.16271 -39.76965,9.16271l0.00001,-0.00002z" fill="black"/>
    <path id="svg_21" d="m1290.78514,272.15381l20.37643,0l-39.76965,117.19701l-24.5494,0l-13.25655,-39.4213l-17.43043,-59.45029l-3.68182,0l-17.43043,59.45029l-13.50213,39.4213l-24.5494,0l-39.76965,-117.19701l20.37643,0l12.51982,36.86367l19.63971,62.00792l19.39322,-62.00792l12.52073,-36.86367l25.03965,0l12.52073,36.86367l19.39322,61.79508l19.63971,-61.79508l12.51982,-36.86367l-0.00001,0z" fill="black"/>
    <path id="svg_22" d="m1384.6579,269.80993c20.94853,0 37.64133,6.17942 50.0802,18.53825c12.43796,12.35883 18.24811,28.26942 17.42952,47.73086l-115.62623,0c0.98139,12.07506 5.97295,21.5934 14.97467,28.55411c9.00172,6.96071 20.37552,10.44061 34.12323,10.44061c20.13086,0 34.20509,-6.81882 42.2245,-20.45556l21.11316,0c-5.56457,12.07415 -13.99328,21.3078 -25.28613,27.70096c-11.29285,6.25036 -24.22197,9.37554 -38.78735,9.37554c-20.13086,0 -36.7427,-5.61095 -49.83554,-16.83377c-12.92912,-11.36471 -19.39413,-25.92554 -19.39413,-43.6825c0,-17.75696 6.46501,-32.38873 19.39413,-43.89533c12.92912,-11.64939 29.4591,-17.47318 49.58996,-17.47318l0.00001,0.00001zm0,16.62003c-12.11144,0 -22.42199,3.05424 -30.93256,9.16271c-8.34685,6.10847 -13.7477,14.06422 -16.20255,23.86634l92.55119,0c-2.29204,-9.94401 -7.44732,-17.89975 -15.46673,-23.86634c-8.01942,-6.10847 -18.00253,-9.16271 -29.94935,-9.16271z" fill="black"/>
    <path id="svg_23" d="m1536.92951,269.80993c20.94672,0 37.64588,6.17942 50.07929,18.53825c12.44251,12.35883 18.24538,28.26942 17.43589,47.73086l-115.62987,0c0.9823,12.07506 5.97568,21.5934 14.97103,28.55411c9.00445,6.96071 20.3828,10.44061 34.12596,10.44061c20.12813,0 34.20781,-6.81882 42.22086,-20.45556l21.11953,0c-5.56639,12.07415 -13.99783,21.3078 -25.28522,27.70096c-11.29649,6.25036 -24.23016,9.37554 -38.7919,9.37554c-20.12813,0 -36.74543,-5.61095 -49.83372,-16.83377c-12.93366,-11.36471 -19.3914,-25.92554 -19.3914,-43.6825c0,-17.75696 6.45774,-32.38873 19.3914,-43.89533c12.92457,-11.64939 29.46001,-17.47318 49.58814,-17.47318l0.00001,0.00001zm0,16.62003c-12.11508,0 -22.42017,3.05424 -30.93347,9.16271c-8.34049,6.10847 -13.74316,14.06422 -16.19891,23.86634l92.54573,0c-2.29204,-9.94401 -7.44004,-17.89975 -15.46219,-23.86634c-8.02215,-6.10847 -17.9998,-9.16271 -29.95117,-9.16271l0.00001,0z" fill="black"/>
    <path id="svg_24" d="m1699.26428,269.80993c18.33633,0 33.38923,5.75284 45.17687,17.25944c11.94227,11.36471 17.91795,25.92554 17.91795,43.6825c0,17.75787 -5.97568,32.38964 -17.91795,43.89624c-11.95136,11.36471 -27.08611,17.04661 -45.42245,17.04661c-11.45111,0 -21.68344,-2.27294 -30.6788,-6.81882c-8.84073,-4.68777 -15.88058,-11.08002 -21.11953,-19.17766l0,76.92438l-20.3737,0l0,-170.46879l20.3737,0l-0.24558,21.49062c5.23895,-8.23862 18.28176,-15.07381 21.61068,-16.80285c8.99535,-4.68777 19.22768,-7.03166 30.6788,-7.03166l0.00001,-0.00001zm-3.92012,105.05101c13.57944,0 24.71221,-4.11931 33.38013,-12.35883c8.67702,-8.23953 13.01552,-18.82294 13.01552,-31.75024c0,-12.7845 -4.33851,-23.29697 -13.01552,-31.53649c-8.66792,-8.38141 -19.80069,-12.57167 -33.38013,-12.57167c-13.91597,0 -25.45804,4.19025 -34.61711,12.57167c-9.16817,8.23953 -13.75225,18.75199 -13.75225,31.53649c0,12.78541 4.58408,23.36882 13.75225,31.75024c9.15907,8.23953 20.70114,12.35883 34.61711,12.35883z" fill="black"/>
    <path id="svg_25" d="m1054.55113,391.6947c-17.67601,0 -32.32325,-3.40896 -43.94353,-10.22778c-11.62029,-6.81882 -18.73926,-16.40811 -21.35783,-28.76694l20.86668,0c2.61857,7.95484 7.44641,13.63765 14.48443,17.04661c7.20083,3.40987 17.18395,5.11435 29.95026,5.11435c10.31055,0 18.6574,-1.49165 25.03965,-4.47494c6.54687,-3.12518 9.82031,-7.45823 9.82031,-12.99824c0,-3.40896 -1.63717,-6.25036 -4.91061,-8.5233c-3.27253,-2.41483 -6.79154,-4.11931 -10.55613,-5.11435c-3.76368,-0.99413 -10.22869,-2.48577 -19.39322,-4.47403c-2.12832,-0.42657 -3.76459,-0.7813 -4.91061,-1.06598c-20.29367,-4.40399 -34.28694,-8.73614 -41.97893,-12.99824c-7.69198,-4.2612 -11.53843,-10.93813 -11.53843,-20.0299c0,-11.08093 4.99247,-19.74612 14.97558,-25.99648c10.14683,-6.25036 23.40338,-9.37554 39.76965,-9.37554c15.7114,0 28.4768,2.98329 38.29711,8.94897c9.98312,5.8247 16.36627,14.06422 19.14764,24.71858l-20.6211,0c-4.9097,-11.22282 -17.02023,-16.83377 -36.3325,-16.83377c-10.63798,0 -19.0667,1.63353 -25.28613,4.9006c-6.21853,3.12518 -9.32825,7.2454 -9.32825,12.35883c0,4.40399 2.53671,7.67106 7.61012,9.80212c5.07342,1.98916 15.22025,4.68777 30.44141,8.09764c7.20083,1.56259 12.60168,2.76955 16.20164,3.62179c3.76459,0.85315 8.18313,2.06011 13.25655,3.6227c5.23804,1.56259 9.08358,3.05424 11.53843,4.47494c2.45485,1.4207 4.99156,3.26707 7.61012,5.54001c2.61857,2.13105 4.41946,4.61683 5.40085,7.45823c0.9823,2.69952 1.47346,5.8247 1.47346,9.37554c0,11.5066 -5.31899,20.38553 -15.95698,26.63589c-10.47427,6.10847 -23.73082,9.16271 -39.76965,9.16271l0.00001,-0.00002z" stroke="black" stroke-width="0.4" mask="url(#svg_8)"/>
    <path id="svg_26" d="m1290.78514,272.15381l20.37643,0l-39.76965,117.19701l-24.5494,0l-13.25655,-39.4213l-17.43043,-59.45029l-3.68182,0l-17.43043,59.45029l-13.50213,39.4213l-24.5494,0l-39.76965,-117.19701l20.37643,0l12.51982,36.86367l19.63971,62.00792l19.39322,-62.00792l12.52073,-36.86367l25.03965,0l12.52073,36.86367l19.39322,61.79508l19.63971,-61.79508l12.51982,-36.86367l-0.00001,0z" stroke="black" stroke-width="0.4" mask="url(#svg_8)"/>
    <path id="svg_27" d="m1384.6579,269.80993c20.94853,0 37.64133,6.17942 50.0802,18.53825c12.43796,12.35883 18.24811,28.26942 17.42952,47.73086l-115.62623,0c0.98139,12.07506 5.97295,21.5934 14.97467,28.55411c9.00172,6.96071 20.37552,10.44061 34.12323,10.44061c20.13086,0 34.20509,-6.81882 42.2245,-20.45556l21.11316,0c-5.56457,12.07415 -13.99328,21.3078 -25.28613,27.70096c-11.29285,6.25036 -24.22197,9.37554 -38.78735,9.37554c-20.13086,0 -36.7427,-5.61095 -49.83554,-16.83377c-12.92912,-11.36471 -19.39413,-25.92554 -19.39413,-43.6825c0,-17.75696 6.46501,-32.38873 19.39413,-43.89533c12.92912,-11.64939 29.4591,-17.47318 49.58996,-17.47318l0.00001,0.00001zm0,16.62003c-12.11144,0 -22.42199,3.05424 -30.93256,9.16271c-8.34685,6.10847 -13.7477,14.06422 -16.20255,23.86634l92.55119,0c-2.29204,-9.94401 -7.44732,-17.89975 -15.46673,-23.86634c-8.01942,-6.10847 -18.00253,-9.16271 -29.94935,-9.16271z" stroke="black" stroke-width="0.4" mask="url(#svg_8)"/>
    <path id="svg_28" d="m1536.92951,269.80993c20.94672,0 37.64588,6.17942 50.07929,18.53825c12.44251,12.35883 18.24538,28.26942 17.43589,47.73086l-115.62987,0c0.9823,12.07506 5.97568,21.5934 14.97103,28.55411c9.00445,6.96071 20.3828,10.44061 34.12596,10.44061c20.12813,0 34.20781,-6.81882 42.22086,-20.45556l21.11953,0c-5.56639,12.07415 -13.99783,21.3078 -25.28522,27.70096c-11.29649,6.25036 -24.23016,9.37554 -38.7919,9.37554c-20.12813,0 -36.74543,-5.61095 -49.83372,-16.83377c-12.93366,-11.36471 -19.3914,-25.92554 -19.3914,-43.6825c0,-17.75696 6.45774,-32.38873 19.3914,-43.89533c12.92457,-11.64939 29.46001,-17.47318 49.58814,-17.47318l0.00001,0.00001zm0,16.62003c-12.11508,0 -22.42017,3.05424 -30.93347,9.16271c-8.34049,6.10847 -13.74316,14.06422 -16.19891,23.86634l92.54573,0c-2.29204,-9.94401 -7.44004,-17.89975 -15.46219,-23.86634c-8.02215,-6.10847 -17.9998,-9.16271 -29.95117,-9.16271l0.00001,0z" stroke="black" stroke-width="0.4" mask="url(#svg_8)"/>
    <path id="svg_29" d="m1699.26428,269.80993c18.33633,0 33.38923,5.75284 45.17687,17.25944c11.94227,11.36471 17.91795,25.92554 17.91795,43.6825c0,17.75787 -5.97568,32.38964 -17.91795,43.89624c-11.95136,11.36471 -27.08611,17.04661 -45.42245,17.04661c-11.45111,0 -21.68344,-2.27294 -30.6788,-6.81882c-8.84073,-4.68777 -15.88058,-11.08002 -21.11953,-19.17766l0,76.92438l-20.3737,0l0,-170.46879l20.3737,0l-0.24558,21.49062c5.23895,-8.23862 18.28176,-15.07381 21.61068,-16.80285c8.99535,-4.68777 19.22768,-7.03166 30.6788,-7.03166l0.00001,-0.00001zm-3.92012,105.05101c13.57944,0 24.71221,-4.11931 33.38013,-12.35883c8.67702,-8.23953 13.01552,-18.82294 13.01552,-31.75024c0,-12.7845 -4.33851,-23.29697 -13.01552,-31.53649c-8.66792,-8.38141 -19.80069,-12.57167 -33.38013,-12.57167c-13.91597,0 -25.45804,4.19025 -34.61711,12.57167c-9.16817,8.23953 -13.75225,18.75199 -13.75225,31.53649c0,12.78541 4.58408,23.36882 13.75225,31.75024c9.15907,8.23953 20.70114,12.35883 34.61711,12.35883z" stroke="black" stroke-width="0.4" mask="url(#svg_8)"/>
    <path id="svg_30" d="m605.50385,391.81658l143.83736,-86.31174c6.83883,-4.10385 15.36214,-4.00925 22.11184,0.24285l137.01862,86.32994c14.00601,8.82618 13.2329,29.7356 -1.38796,37.47397l-136.98406,72.50037c-6.04935,3.20158 -13.24655,3.27344 -19.35684,0.19282l-143.87155,-72.51947c-15.12156,-7.62104 -15.89958,-29.18806 -1.3674,-37.90873l-0.00001,-0.00001z" fill="#F4793E" fill-opacity="0.5"/>
    <path id="svg_31" d="m586.38022,323.66836l143.8379,-86.31165c6.83792,-4.10348 15.36123,-4.00998 22.11093,0.24239l137.01862,86.3303c14.00692,8.82618 13.2329,29.7356 -1.38705,37.47397l-136.98406,72.50037c-6.05026,3.20158 -13.24746,3.27344 -19.35775,0.19282l-143.87119,-72.51766c-15.12156,-7.62286 -15.89958,-29.18988 -1.3674,-37.91055l0,0.00001z" fill="#F4793E" fill-opacity="0.7"/>
    <path id="svg_32" d="m605.50385,255.52014l143.83736,-86.31184c6.83883,-4.10348 15.36214,-4.01007 22.11184,0.24239l137.01862,86.33139c14.00601,8.82527 13.2329,29.7356 -1.38796,37.47306l-136.98406,72.49946c-6.04935,3.20249 -13.24655,3.27435 -19.35684,0.19464l-143.87155,-72.51947c-15.12156,-7.62195 -15.89958,-29.18897 -1.3674,-37.90964l-0.00001,0.00001z" fill="#FF8144"/>
   </g>
  </g>
  <g id="svg_33">
   <g id="svg_34">
    <title>Layer 1</title>
    <g id="svg_35">
     <mask fill="black" height="21" width="87" y="10.7949" x="47" maskUnits="userSpaceOnUse" id="svg_10">
      <rect id="svg_36" height="21" width="87" y="10.7949" x="47" fill="white"/>
      <path id="svg_37" d="m55.1796,25.1956c-1.9434,0 -3.5538,-0.3748 -4.8314,-1.1245c-1.2776,-0.7497 -2.0603,-1.804 -2.3482,-3.1628l2.2942,0c0.2879,0.8746 0.8187,1.4994 1.5925,1.8742c0.7917,0.3749 1.8893,0.5623 3.2929,0.5623c1.1336,0 2.0513,-0.164 2.753,-0.492c0.7198,-0.3436 1.0797,-0.82 1.0797,-1.4291c0,-0.3748 -0.18,-0.6872 -0.5399,-0.9371c-0.3598,-0.2655 -0.7467,-0.4529 -1.1606,-0.5623c-0.4138,-0.1093 -1.1246,-0.2733 -2.1322,-0.4919c-0.234,-0.0469 -0.4139,-0.0859 -0.5399,-0.1172c-2.2312,-0.4842 -3.7697,-0.9605 -4.6154,-1.4291c-0.8457,-0.4685 -1.2686,-1.2026 -1.2686,-2.2022c0,-1.2183 0.5489,-2.171 1.6465,-2.8582c1.1156,-0.6872 2.5731,-1.0308 4.3725,-1.0308c1.7274,0 3.1309,0.328 4.2106,0.9839c1.0976,0.6404 1.7994,1.5463 2.1052,2.7177l-2.2672,0c-0.5398,-1.2339 -1.8713,-1.8508 -3.9946,-1.8508c-1.1696,0 -2.0963,0.1796 -2.7801,0.5388c-0.6837,0.3436 -1.0256,0.7966 -1.0256,1.3588c0,0.4842 0.2789,0.8434 0.8367,1.0777c0.5578,0.2187 1.6734,0.5154 3.3469,0.8903c0.7917,0.1718 1.3855,0.3045 1.7813,0.3982c0.4139,0.0938 0.8997,0.2265 1.4575,0.3983c0.5759,0.1718 0.9987,0.3358 1.2686,0.492c0.2699,0.1562 0.5488,0.3592 0.8367,0.6091c0.2879,0.2343 0.4859,0.5076 0.5938,0.82c0.108,0.2968 0.162,0.6404 0.162,1.0308c0,1.2651 -0.5848,2.2413 -1.7544,2.9285c-1.1516,0.6716 -2.6091,1.0074 -4.3725,1.0074z"/>
      <path id="svg_38" d="m81.1525,12.0526l2.2403,0l-4.3725,12.8853l-2.6991,0l-1.4575,-4.3342l-1.9164,-6.5363l-0.4048,0l-1.9164,6.5363l-1.4845,4.3342l-2.6991,0l-4.3725,-12.8853l2.2403,0l1.3765,4.053l2.1593,6.8175l2.1322,-6.8175l1.3766,-4.053l2.753,0l1.3766,4.053l2.1322,6.7941l2.1593,-6.7941l1.3765,-4.053z"/>
      <path id="svg_39" d="m91.4734,11.7949c2.3032,0 4.1385,0.6794 5.5061,2.0382c1.3675,1.3588 2.0063,3.1081 1.9163,5.2478l-12.7126,0c0.1079,1.3276 0.6567,2.3741 1.6464,3.1394c0.9897,0.7653 2.2402,1.1479 3.7517,1.1479c2.2133,0 3.7607,-0.7497 4.6424,-2.249l2.3213,0c-0.6118,1.3275 -1.5385,2.3427 -2.7801,3.0456c-1.2416,0.6872 -2.6631,1.0308 -4.2645,1.0308c-2.2133,0 -4.0397,-0.6169 -5.4792,-1.8508c-1.4215,-1.2495 -2.1323,-2.8504 -2.1323,-4.8027c0,-1.9523 0.7108,-3.561 2.1323,-4.8261c1.4215,-1.2808 3.2389,-1.9211 5.4522,-1.9211zm0,1.8273c-1.3316,0 -2.4652,0.3358 -3.4009,1.0074c-0.9177,0.6716 -1.5115,1.5463 -1.7814,2.624l10.1756,0c-0.252,-1.0933 -0.8188,-1.968 -1.7005,-2.624c-0.8817,-0.6716 -1.9793,-1.0074 -3.2928,-1.0074z"/>
      <path id="svg_40" d="m108.215,11.7949c2.303,0 4.139,0.6794 5.506,2.0382c1.368,1.3588 2.006,3.1081 1.917,5.2478l-12.713,0c0.108,1.3276 0.657,2.3741 1.646,3.1394c0.99,0.7653 2.241,1.1479 3.752,1.1479c2.213,0 3.761,-0.7497 4.642,-2.249l2.322,0c-0.612,1.3275 -1.539,2.3427 -2.78,3.0456c-1.242,0.6872 -2.664,1.0308 -4.265,1.0308c-2.213,0 -4.04,-0.6169 -5.479,-1.8508c-1.422,-1.2495 -2.132,-2.8504 -2.132,-4.8027c0,-1.9523 0.71,-3.561 2.132,-4.8261c1.421,-1.2808 3.239,-1.9211 5.452,-1.9211zm0,1.8273c-1.332,0 -2.465,0.3358 -3.401,1.0074c-0.917,0.6716 -1.511,1.5463 -1.781,2.624l10.175,0c-0.252,-1.0933 -0.818,-1.968 -1.7,-2.624c-0.882,-0.6716 -1.979,-1.0074 -3.293,-1.0074z"/>
      <path id="svg_41" d="m126.063,11.7949c2.016,0 3.671,0.6325 4.967,1.8976c1.313,1.2495 1.97,2.8504 1.97,4.8027c0,1.9524 -0.657,3.5611 -1.97,4.8262c-1.314,1.2495 -2.978,1.8742 -4.994,1.8742c-1.259,0 -2.384,-0.2499 -3.373,-0.7497c-0.972,-0.5154 -1.746,-1.2182 -2.322,-2.1085l0,8.4575l-2.24,0l0,-18.7423l2.24,0l-0.027,2.3628c0.576,-0.9058 2.01,-1.6573 2.376,-1.8474c0.989,-0.5154 2.114,-0.7731 3.373,-0.7731zm-0.431,11.5499c1.493,0 2.717,-0.4529 3.67,-1.3588c0.954,-0.9059 1.431,-2.0695 1.431,-3.4908c0,-1.4056 -0.477,-2.5614 -1.431,-3.4673c-0.953,-0.9215 -2.177,-1.3822 -3.67,-1.3822c-1.53,0 -2.799,0.4607 -3.806,1.3822c-1.008,0.9059 -1.512,2.0617 -1.512,3.4673c0,1.4057 0.504,2.5693 1.512,3.4908c1.007,0.9059 2.276,1.3588 3.806,1.3588z"/>
     </mask>
     <g id="svg_42">
      <mask fill="black" height="21" width="87" y="10.7949" x="47" maskUnits="userSpaceOnUse" id="svg_9">
       <rect id="svg_43" height="21" width="87" y="10.7949" x="47" fill="white"/>
       <path id="svg_44" d="m55.1796,25.1956c-1.9434,0 -3.5538,-0.3748 -4.8314,-1.1245c-1.2776,-0.7497 -2.0603,-1.804 -2.3482,-3.1628l2.2942,0c0.2879,0.8746 0.8187,1.4994 1.5925,1.8742c0.7917,0.3749 1.8893,0.5623 3.2929,0.5623c1.1336,0 2.0513,-0.164 2.753,-0.492c0.7198,-0.3436 1.0797,-0.82 1.0797,-1.4291c0,-0.3748 -0.18,-0.6872 -0.5399,-0.9371c-0.3598,-0.2655 -0.7467,-0.4529 -1.1606,-0.5623c-0.4138,-0.1093 -1.1246,-0.2733 -2.1322,-0.4919c-0.234,-0.0469 -0.4139,-0.0859 -0.5399,-0.1172c-2.2312,-0.4842 -3.7697,-0.9605 -4.6154,-1.4291c-0.8457,-0.4685 -1.2686,-1.2026 -1.2686,-2.2022c0,-1.2183 0.5489,-2.171 1.6465,-2.8582c1.1156,-0.6872 2.5731,-1.0308 4.3725,-1.0308c1.7274,0 3.1309,0.328 4.2106,0.9839c1.0976,0.6404 1.7994,1.5463 2.1052,2.7177l-2.2672,0c-0.5398,-1.2339 -1.8713,-1.8508 -3.9946,-1.8508c-1.1696,0 -2.0963,0.1796 -2.7801,0.5388c-0.6837,0.3436 -1.0256,0.7966 -1.0256,1.3588c0,0.4842 0.2789,0.8434 0.8367,1.0777c0.5578,0.2187 1.6734,0.5154 3.3469,0.8903c0.7917,0.1718 1.3855,0.3045 1.7813,0.3982c0.4139,0.0938 0.8997,0.2265 1.4575,0.3983c0.5759,0.1718 0.9987,0.3358 1.2686,0.492c0.2699,0.1562 0.5488,0.3592 0.8367,0.6091c0.2879,0.2343 0.4859,0.5076 0.5938,0.82c0.108,0.2968 0.162,0.6404 0.162,1.0308c0,1.2651 -0.5848,2.2413 -1.7544,2.9285c-1.1516,0.6716 -2.6091,1.0074 -4.3725,1.0074z"/>
       <path id="svg_45" d="m81.1525,12.0526l2.2403,0l-4.3725,12.8853l-2.6991,0l-1.4575,-4.3342l-1.9164,-6.5363l-0.4048,0l-1.9164,6.5363l-1.4845,4.3342l-2.6991,0l-4.3725,-12.8853l2.2403,0l1.3765,4.053l2.1593,6.8175l2.1322,-6.8175l1.3766,-4.053l2.753,0l1.3766,4.053l2.1322,6.7941l2.1593,-6.7941l1.3765,-4.053z"/>
       <path id="svg_46" d="m91.4734,11.7949c2.3032,0 4.1385,0.6794 5.5061,2.0382c1.3675,1.3588 2.0063,3.1081 1.9163,5.2478l-12.7126,0c0.1079,1.3276 0.6567,2.3741 1.6464,3.1394c0.9897,0.7653 2.2402,1.1479 3.7517,1.1479c2.2133,0 3.7607,-0.7497 4.6424,-2.249l2.3213,0c-0.6118,1.3275 -1.5385,2.3427 -2.7801,3.0456c-1.2416,0.6872 -2.6631,1.0308 -4.2645,1.0308c-2.2133,0 -4.0397,-0.6169 -5.4792,-1.8508c-1.4215,-1.2495 -2.1323,-2.8504 -2.1323,-4.8027c0,-1.9523 0.7108,-3.561 2.1323,-4.8261c1.4215,-1.2808 3.2389,-1.9211 5.4522,-1.9211zm0,1.8273c-1.3316,0 -2.4652,0.3358 -3.4009,1.0074c-0.9177,0.6716 -1.5115,1.5463 -1.7814,2.624l10.1756,0c-0.252,-1.0933 -0.8188,-1.968 -1.7005,-2.624c-0.8817,-0.6716 -1.9793,-1.0074 -3.2928,-1.0074z"/>
       <path id="svg_47" d="m108.215,11.7949c2.303,0 4.139,0.6794 5.506,2.0382c1.368,1.3588 2.006,3.1081 1.917,5.2478l-12.713,0c0.108,1.3276 0.657,2.3741 1.646,3.1394c0.99,0.7653 2.241,1.1479 3.752,1.1479c2.213,0 3.761,-0.7497 4.642,-2.249l2.322,0c-0.612,1.3275 -1.539,2.3427 -2.78,3.0456c-1.242,0.6872 -2.664,1.0308 -4.265,1.0308c-2.213,0 -4.04,-0.6169 -5.479,-1.8508c-1.422,-1.2495 -2.132,-2.8504 -2.132,-4.8027c0,-1.9523 0.71,-3.561 2.132,-4.8261c1.421,-1.2808 3.239,-1.9211 5.452,-1.9211zm0,1.8273c-1.332,0 -2.465,0.3358 -3.401,1.0074c-0.917,0.6716 -1.511,1.5463 -1.781,2.624l10.175,0c-0.252,-1.0933 -0.818,-1.968 -1.7,-2.624c-0.882,-0.6716 -1.979,-1.0074 -3.293,-1.0074z"/>
       <path id="svg_48" d="m126.063,11.7949c2.016,0 3.671,0.6325 4.967,1.8976c1.313,1.2495 1.97,2.8504 1.97,4.8027c0,1.9524 -0.657,3.5611 -1.97,4.8262c-1.314,1.2495 -2.978,1.8742 -4.994,1.8742c-1.259,0 -2.384,-0.2499 -3.373,-0.7497c-0.972,-0.5154 -1.746,-1.2182 -2.322,-2.1085l0,8.4575l-2.24,0l0,-18.7423l2.24,0l-0.027,2.3628c0.576,-0.9058 2.01,-1.6573 2.376,-1.8474c0.989,-0.5154 2.114,-0.7731 3.373,-0.7731zm-0.431,11.5499c1.493,0 2.717,-0.4529 3.67,-1.3588c0.954,-0.9059 1.431,-2.0695 1.431,-3.4908c0,-1.4056 -0.477,-2.5614 -1.431,-3.4673c-0.953,-0.9215 -2.177,-1.3822 -3.67,-1.3822c-1.53,0 -2.799,0.4607 -3.806,1.3822c-1.008,0.9059 -1.512,2.0617 -1.512,3.4673c0,1.4057 0.504,2.5693 1.512,3.4908c1.007,0.9059 2.276,1.3588 3.806,1.3588z"/>
      </mask>
      <path id="svg_49" fill="black" d="m89.2369,42.20405c-3.28969,0 -6.0157,-0.63445 -8.17836,-1.9035c-2.16266,-1.26906 -3.48758,-3.05372 -3.97492,-5.35383l3.88351,0c0.48734,1.48048 1.38586,2.53811 2.6957,3.17256c1.34015,0.63461 3.19811,0.95183 5.57406,0.95183c1.9189,0 3.47234,-0.27761 4.66014,-0.83283c1.21844,-0.58163 1.82766,-1.38806 1.82766,-2.41911c0,-0.63445 -0.30469,-1.16326 -0.91391,-1.58628c-0.60905,-0.44942 -1.26398,-0.76665 -1.96461,-0.95183c-0.70046,-0.18502 -1.90367,-0.46263 -3.60928,-0.83266c-0.3961,-0.07939 -0.70063,-0.14541 -0.91391,-0.19839c-3.77687,-0.81963 -6.38117,-1.62589 -7.81272,-2.41911c-1.43156,-0.79305 -2.14742,-2.0357 -2.14742,-3.72778c0,-2.06228 0.92915,-3.67497 2.78711,-4.83822c1.88844,-1.16326 4.35562,-1.74489 7.40155,-1.74489c2.92406,0 5.29983,0.55522 7.1275,1.6655c1.85796,1.08404 3.04594,2.6175 3.56358,4.60039l-3.8378,0c-0.91375,-2.08869 -3.16765,-3.13295 -6.76186,-3.13295c-1.97984,0 -3.54851,0.30402 -4.70602,0.91206c-1.15734,0.58163 -1.73609,1.34845 -1.73609,2.30011c0,0.81963 0.47211,1.42766 1.41632,1.82428c0.94422,0.37021 2.83265,0.87245 5.66547,1.50706c1.34015,0.29082 2.34531,0.51544 3.0153,0.67405c0.70063,0.15878 1.52297,0.38341 2.46718,0.67422c0.97486,0.29082 1.69055,0.56843 2.14742,0.83283c0.45687,0.26441 0.92898,0.60804 1.41632,1.03105c0.48734,0.39661 0.82251,0.85924 1.00516,1.38806c0.18282,0.50241 0.27422,1.08404 0.27422,1.74489c0,2.1415 -0.98992,3.79396 -2.96976,4.95722c-1.94937,1.13685 -4.41656,1.70528 -7.40155,1.70528l0,0z"/>
      <path id="svg_50" fill="black" d="m133.20255,19.95622l3.79227,0l-7.40155,21.81161l-4.5689,0l-2.46718,-7.33672l-3.24399,-11.06433l-0.68523,0l-3.24399,11.06433l-2.51289,7.33672l-4.5689,0l-7.40155,-21.81161l3.79227,0l2.33007,6.86072l3.65516,11.54033l3.60928,-11.54033l2.33024,-6.86072l4.66014,0l2.33024,6.86072l3.60928,11.50072l3.65516,-11.50072l2.33007,-6.86072l0,0l0,0z"/>
      <path id="svg_51" fill="black" d="m150.67327,19.52c3.89875,0 7.00545,1.15005 9.32046,3.45016c2.31484,2.30011 3.39617,5.26124 3.24382,8.88322l-21.51927,0c0.18265,2.2473 1.11163,4.01876 2.78694,5.31422c1.67532,1.29546 3.7921,1.94311 6.35069,1.94311c3.74656,0 6.36593,-1.26906 7.85843,-3.807l3.92938,0c-1.03562,2.24713 -2.6043,3.96561 -4.70602,5.15544c-2.10172,1.16326 -4.50797,1.74489 -7.21874,1.74489c-3.74656,0 -6.83821,-1.04426 -9.27492,-3.13295c-2.40625,-2.11509 -3.60945,-4.82502 -3.60945,-8.12978c0,-3.30476 1.20321,-6.02789 3.60945,-8.16939c2.40625,-2.16807 5.48265,-3.25194 9.22922,-3.25194l0,0l0.00001,0zm0,3.09316c-2.25407,0 -4.17297,0.56843 -5.75688,1.70528c-1.55344,1.13685 -2.55859,2.6175 -3.01546,4.44178l17.22476,0c-0.42657,-1.85069 -1.38603,-3.33134 -2.87852,-4.44178c-1.4925,-1.13685 -3.35046,-1.70528 -5.57389,-1.70528l0,0l0,0z"/>
      <path id="svg_52" fill="black" d="m179.01263,19.52c3.89841,0 7.0063,1.15005 9.32029,3.45016c2.31569,2.30011 3.39566,5.26124 3.245,8.88322l-21.51995,0c0.18282,2.2473 1.11214,4.01876 2.78627,5.31422c1.67583,1.29546 3.79345,1.94311 6.3512,1.94311c3.74606,0 6.36644,-1.26906 7.85775,-3.807l3.93057,0c-1.03596,2.24713 -2.60515,3.96561 -4.70585,5.15544c-2.1024,1.16326 -4.50949,1.74489 -7.21958,1.74489c-3.74606,0 -6.83871,-1.04426 -9.27458,-3.13295c-2.40709,-2.11509 -3.60895,-4.82502 -3.60895,-8.12978c0,-3.30476 1.20185,-6.02789 3.60895,-8.16939c2.4054,-2.16807 5.48282,-3.25194 9.22888,-3.25194l0,0l0.00001,0zm0,3.09316c-2.25474,0 -4.17263,0.56843 -5.75705,1.70528c-1.55225,1.13685 -2.55775,2.6175 -3.01479,4.44178l17.22374,0c-0.42657,-1.85069 -1.38467,-3.33134 -2.87768,-4.44178c-1.49301,-1.13685 -3.34995,-1.70528 -5.57423,-1.70528l0,0l0,0z"/>
      <path id="svg_53" fill="black" d="m209.22485,19.52c3.41258,0 6.21409,1.07067 8.40789,3.21216c2.22258,2.11509 3.33472,4.82502 3.33472,8.12978c0,3.30493 -1.11214,6.02806 -3.33472,8.16956c-2.22428,2.11509 -5.04101,3.17256 -8.4536,3.17256c-2.13118,0 -4.03552,-0.42302 -5.70965,-1.26906c-1.64535,-0.87245 -2.95554,-2.06211 -3.93057,-3.56917l0,14.31645l-3.79176,0l0,-31.72605l3.79176,0l-0.0457,3.99963c0.97502,-1.53329 3.40243,-2.8054 4.02197,-3.12719c1.67413,-0.87245 3.57848,-1.30867 5.70965,-1.30867l0,0l0,0zm-0.72958,19.55111c2.52728,0 4.5992,-0.76665 6.2124,-2.30011c1.61488,-1.53346 2.42233,-3.50315 2.42233,-5.90905c0,-2.37933 -0.80744,-4.33581 -2.42233,-5.86928c-1.61319,-1.55987 -3.68512,-2.33972 -6.2124,-2.33972c-2.58991,0 -4.73801,0.77985 -6.44261,2.33972c-1.70629,1.53346 -2.55944,3.48994 -2.55944,5.86928c0,2.3795 0.85315,4.34919 2.55944,5.90905c1.7046,1.53346 3.8527,2.30011 6.44261,2.30011z"/>
      <path id="svg_54" mask="url(#svg_9)" stroke-width="0.4" stroke="black" d="m89.2369,42.20405c-3.28969,0 -6.0157,-0.63445 -8.17836,-1.9035c-2.16266,-1.26906 -3.48758,-3.05372 -3.97492,-5.35383l3.88351,0c0.48734,1.48048 1.38586,2.53811 2.6957,3.17256c1.34015,0.63461 3.19811,0.95183 5.57406,0.95183c1.9189,0 3.47234,-0.27761 4.66014,-0.83283c1.21844,-0.58163 1.82766,-1.38806 1.82766,-2.41911c0,-0.63445 -0.30469,-1.16326 -0.91391,-1.58628c-0.60905,-0.44942 -1.26398,-0.76665 -1.96461,-0.95183c-0.70046,-0.18502 -1.90367,-0.46263 -3.60928,-0.83266c-0.3961,-0.07939 -0.70063,-0.14541 -0.91391,-0.19839c-3.77687,-0.81963 -6.38117,-1.62589 -7.81272,-2.41911c-1.43156,-0.79305 -2.14742,-2.0357 -2.14742,-3.72778c0,-2.06228 0.92915,-3.67497 2.78711,-4.83822c1.88844,-1.16326 4.35562,-1.74489 7.40155,-1.74489c2.92406,0 5.29983,0.55522 7.1275,1.6655c1.85796,1.08404 3.04594,2.6175 3.56358,4.60039l-3.8378,0c-0.91375,-2.08869 -3.16765,-3.13295 -6.76186,-3.13295c-1.97984,0 -3.54851,0.30402 -4.70602,0.91206c-1.15734,0.58163 -1.73609,1.34845 -1.73609,2.30011c0,0.81963 0.47211,1.42766 1.41632,1.82428c0.94422,0.37021 2.83265,0.87245 5.66547,1.50706c1.34015,0.29082 2.34531,0.51544 3.0153,0.67405c0.70063,0.15878 1.52297,0.38341 2.46718,0.67422c0.97486,0.29082 1.69055,0.56843 2.14742,0.83283c0.45687,0.26441 0.92898,0.60804 1.41632,1.03105c0.48734,0.39661 0.82251,0.85924 1.00516,1.38806c0.18282,0.50241 0.27422,1.08404 0.27422,1.74489c0,2.1415 -0.98992,3.79396 -2.96976,4.95722c-1.94937,1.13685 -4.41656,1.70528 -7.40155,1.70528l0,0z"/>
      <path id="svg_55" mask="url(#svg_9)" stroke-width="0.4" stroke="black" d="m133.20255,19.95622l3.79227,0l-7.40155,21.81161l-4.5689,0l-2.46718,-7.33672l-3.24399,-11.06433l-0.68523,0l-3.24399,11.06433l-2.51289,7.33672l-4.5689,0l-7.40155,-21.81161l3.79227,0l2.33007,6.86072l3.65516,11.54033l3.60928,-11.54033l2.33024,-6.86072l4.66014,0l2.33024,6.86072l3.60928,11.50072l3.65516,-11.50072l2.33007,-6.86072l0,0l0,0z"/>
      <path id="svg_56" mask="url(#svg_9)" stroke-width="0.4" stroke="black" d="m150.67327,19.52c3.89875,0 7.00545,1.15005 9.32046,3.45016c2.31484,2.30011 3.39617,5.26124 3.24382,8.88322l-21.51927,0c0.18265,2.2473 1.11163,4.01876 2.78694,5.31422c1.67532,1.29546 3.7921,1.94311 6.35069,1.94311c3.74656,0 6.36593,-1.26906 7.85843,-3.807l3.92938,0c-1.03562,2.24713 -2.6043,3.96561 -4.70602,5.15544c-2.10172,1.16326 -4.50797,1.74489 -7.21874,1.74489c-3.74656,0 -6.83821,-1.04426 -9.27492,-3.13295c-2.40625,-2.11509 -3.60945,-4.82502 -3.60945,-8.12978c0,-3.30476 1.20321,-6.02789 3.60945,-8.16939c2.40625,-2.16807 5.48265,-3.25194 9.22922,-3.25194l0,0l0.00001,0zm0,3.09316c-2.25407,0 -4.17297,0.56843 -5.75688,1.70528c-1.55344,1.13685 -2.55859,2.6175 -3.01546,4.44178l17.22476,0c-0.42657,-1.85069 -1.38603,-3.33134 -2.87852,-4.44178c-1.4925,-1.13685 -3.35046,-1.70528 -5.57389,-1.70528l0,0l0,0z"/>
      <path id="svg_57" mask="url(#svg_9)" stroke-width="0.4" stroke="black" d="m179.01263,19.52c3.89841,0 7.0063,1.15005 9.32029,3.45016c2.31569,2.30011 3.39566,5.26124 3.245,8.88322l-21.51995,0c0.18282,2.2473 1.11214,4.01876 2.78627,5.31422c1.67583,1.29546 3.79345,1.94311 6.3512,1.94311c3.74606,0 6.36644,-1.26906 7.85775,-3.807l3.93057,0c-1.03596,2.24713 -2.60515,3.96561 -4.70585,5.15544c-2.1024,1.16326 -4.50949,1.74489 -7.21958,1.74489c-3.74606,0 -6.83871,-1.04426 -9.27458,-3.13295c-2.40709,-2.11509 -3.60895,-4.82502 -3.60895,-8.12978c0,-3.30476 1.20185,-6.02789 3.60895,-8.16939c2.4054,-2.16807 5.48282,-3.25194 9.22888,-3.25194l0,0l0.00001,0zm0,3.09316c-2.25474,0 -4.17263,0.56843 -5.75705,1.70528c-1.55225,1.13685 -2.55775,2.6175 -3.01479,4.44178l17.22374,0c-0.42657,-1.85069 -1.38467,-3.33134 -2.87768,-4.44178c-1.49301,-1.13685 -3.34995,-1.70528 -5.57423,-1.70528l0,0l0,0z"/>
      <path id="svg_58" mask="url(#svg_9)" stroke-width="0.4" stroke="black" d="m209.22485,19.52c3.41258,0 6.21409,1.07067 8.40789,3.21216c2.22258,2.11509 3.33472,4.82502 3.33472,8.12978c0,3.30493 -1.11214,6.02806 -3.33472,8.16956c-2.22428,2.11509 -5.04101,3.17256 -8.4536,3.17256c-2.13118,0 -4.03552,-0.42302 -5.70965,-1.26906c-1.64535,-0.87245 -2.95554,-2.06211 -3.93057,-3.56917l0,14.31645l-3.79176,0l0,-31.72605l3.79176,0l-0.0457,3.99963c0.97502,-1.53329 3.40243,-2.8054 4.02197,-3.12719c1.67413,-0.87245 3.57848,-1.30867 5.70965,-1.30867l0,0l0,0zm-0.72958,19.55111c2.52728,0 4.5992,-0.76665 6.2124,-2.30011c1.61488,-1.53346 2.42233,-3.50315 2.42233,-5.90905c0,-2.37933 -0.80744,-4.33581 -2.42233,-5.86928c-1.61319,-1.55987 -3.68512,-2.33972 -6.2124,-2.33972c-2.58991,0 -4.73801,0.77985 -6.44261,2.33972c-1.70629,1.53346 -2.55944,3.48994 -2.55944,5.86928c0,2.3795 0.85315,4.34919 2.55944,5.90905c1.7046,1.53346 3.8527,2.30011 6.44261,2.30011z"/>
      <path id="svg_59" fill-opacity="0.5" fill="#F4793E" d="m5.66444,42.22674l26.76966,-16.06353c1.27278,-0.76377 2.85906,-0.74617 4.11525,0.0452l25.50062,16.06692c2.60667,1.64265 2.46278,5.53411 -0.25831,6.9743l-25.49418,13.49309c-1.12585,0.59585 -2.46532,0.60922 -3.60252,0.03589l-26.77602,-13.49664c-2.81428,-1.41835 -2.95908,-5.43221 -0.25449,-7.05522l0,0z"/>
      <path id="svg_60" fill-opacity="0.7" fill="#F4793E" d="m2.10533,29.54363l26.76976,-16.06351c1.27261,-0.7637 2.85889,-0.7463 4.11508,0.04511l25.50062,16.06699c2.60684,1.64265 2.46278,5.53411 -0.25815,6.9743l-25.49418,13.49309c-1.12602,0.59585 -2.46549,0.60922 -3.60268,0.03589l-26.77596,-13.4963c-2.81428,-1.4187 -2.95908,-5.43255 -0.25449,-7.05556l0,0z"/>
      <path id="svg_61" fill="#FF8144" d="m5.66444,16.86052l26.76966,-16.06355c1.27278,-0.7637 2.85906,-0.74632 4.11525,0.04511l25.50062,16.06719c2.60667,1.64248 2.46278,5.53411 -0.25831,6.97414l-25.49418,13.49292c-1.12585,0.59602 -2.46532,0.60939 -3.60252,0.03623l-26.77602,-13.49664c-2.81428,-1.41853 -2.95908,-5.43238 -0.25449,-7.05539l0,0z"/>
     </g>
    </g>
   </g>
  </g>
 </g>

</svg>