<svg width="24" height="24" viewBox="0 0 24 24" fill="none" xmlns="http://www.w3.org/2000/svg">
<g clip-path="url(#clip0_125_38)">
<path fill-rule="evenodd" clip-rule="evenodd" d="M10.4453 1.82267C9.64086 1.82267 8.95652 2.38165 8.76443 3.13506H15.2237C15.0316 2.38165 14.3472 1.82267 13.5428 1.82267H10.4453ZM17.0485 3.13517H19.4257C21.947 3.13517 24 5.21314 24 7.76502C24 7.76502 23.928 8.84532 23.904 10.3497C23.9016 10.4688 23.8439 10.5855 23.7491 10.6559C23.1716 11.0825 22.6433 11.4349 22.5953 11.4592C20.6023 12.7959 18.2863 13.7364 15.8191 14.2043C15.6582 14.2359 15.4998 14.152 15.4181 14.0086C14.7266 12.8105 13.4347 12.0303 11.994 12.0303C10.5629 12.0303 9.25903 12.802 8.54707 14.0013C8.46423 14.1423 8.30815 14.2237 8.14847 14.1933C5.70165 13.7243 3.38569 12.7849 1.4047 11.4713L0.252126 10.6693C0.156078 10.6086 0.096048 10.4992 0.096048 10.3777C0.06003 9.75793 0 7.76502 0 7.76502C0 5.21314 2.05303 3.13517 4.57429 3.13517H6.93947C7.16758 1.37316 8.64432 0 10.4452 0H13.5428C15.3437 0 16.8204 1.37316 17.0485 3.13517ZM23.5919 12.9782L23.5438 13.0025C21.1186 14.6308 18.2012 15.7123 15.1396 16.1619C14.7074 16.2227 14.2752 15.9432 14.1551 15.5057C13.891 14.5093 13.0386 13.8531 12.0181 13.8531H12.0061H11.982C10.9615 13.8531 10.1091 14.5093 9.84498 15.5057C9.72492 15.9432 9.2927 16.2227 8.86049 16.1619C5.79896 15.7123 2.8815 14.6308 0.456285 13.0025C0.444279 12.9903 0.324219 12.9174 0.228171 12.9782C0.120117 13.0389 0.120117 13.1847 0.120117 13.1847L0.204159 19.3822C0.204159 21.9341 2.24518 23.9999 4.76644 23.9999H19.2217C21.7429 23.9999 23.784 21.9341 23.784 19.3822L23.88 13.1847C23.88 13.1847 23.88 13.0389 23.7719 12.9782C23.7119 12.9417 23.6399 12.9539 23.5919 12.9782ZM12.8944 18.0699C12.8944 18.5803 12.4982 18.9813 11.994 18.9813C11.5017 18.9813 11.0935 18.5803 11.0935 18.0699V16.5023C11.0935 16.0041 11.5017 15.5909 11.994 15.5909C12.4982 15.5909 12.8944 16.0041 12.8944 16.5023V18.0699Z" fill="#333333"/>
</g>
<defs>
<clipPath id="clip0_125_38">
<rect width="24" height="24" fill="white"/>
</clipPath>
</defs>
</svg>
