<svg width="24" height="24" viewBox="0 0 24 24" fill="none" xmlns="http://www.w3.org/2000/svg">
<path fill-rule="evenodd" clip-rule="evenodd" d="M23.7447 9.84686C23.5822 10.0047 23.3617 10.0949 23.1296 10.0949C22.2708 10.0949 21.5745 10.7713 21.5745 11.5944C21.5745 12.423 22.2627 13.0961 23.1133 13.1051C23.5927 13.1096 24 13.4343 24 13.8999V16.7918C24 19.2259 21.9691 21.2 19.4623 21.2H15.6789C15.2878 21.2 14.971 20.8922 14.971 20.5123V18.077C14.971 17.6035 14.588 17.2315 14.1006 17.2315C13.6248 17.2315 13.2302 17.6035 13.2302 18.077V20.5123C13.2302 20.8922 12.9133 21.2 12.5234 21.2H4.53772C2.04255 21.2 0 19.227 0 16.7918V13.8999C0 13.4343 0.40735 13.1096 0.886654 13.1051C1.73849 13.0961 2.42553 12.423 2.42553 11.5944C2.42553 10.7939 1.75242 10.1851 0.870406 10.1851C0.638298 10.1851 0.417795 10.0949 0.255319 9.93705C0.0928433 9.77921 0 9.565 0 9.33952V6.4195C0 3.98877 2.0472 2 4.54932 2H12.5234C12.9133 2 13.2302 2.30779 13.2302 2.68773V5.57393C13.2302 6.03617 13.6248 6.4195 14.1006 6.4195C14.588 6.4195 14.971 6.03617 14.971 5.57393V2.68773C14.971 2.30779 15.2878 2 15.6789 2H19.4623C21.9691 2 24 3.97299 24 6.40822V9.24932C24 9.47481 23.9072 9.68902 23.7447 9.84686ZM14.1006 15.0443C14.588 15.0443 14.971 14.661 14.971 14.1987V9.68903C14.971 9.22678 14.588 8.84346 14.1006 8.84346C13.6248 8.84346 13.2302 9.22678 13.2302 9.68903V14.1987C13.2302 14.661 13.6248 15.0443 14.1006 15.0443Z" fill="#333333"/>
</svg>
