<svg width="24" height="24" viewBox="0 0 24 24" fill="none" xmlns="http://www.w3.org/2000/svg">
<path fill-rule="evenodd" clip-rule="evenodd" d="M17.3911 0.88391L17.3923 1.74598C20.7591 1.99425 22.9831 4.15287 22.9867 7.46322L23 17.1529C23.0048 20.7621 20.595 22.9828 16.7322 22.9885L7.29675 23C3.45813 23.0046 1.01811 20.731 1.01328 17.1115L1.00001 7.53563C0.995181 4.20345 3.14076 2.05058 6.50755 1.75977L6.50634 0.897703C6.50513 0.391957 6.90336 0.0114969 7.43432 0.0114969C7.96528 0.0103474 8.3635 0.389658 8.36471 0.895405L8.36592 1.7L15.5339 1.69081L15.5327 0.886209C15.5315 0.380462 15.9297 0.00115203 16.4607 2.60531e-06C16.9796 -0.00114682 17.3899 0.378163 17.3911 0.88391ZM2.85961 7.89099L21.1296 7.868V7.4657C21.0777 4.99444 19.7599 3.69788 17.3947 3.50478L17.3959 4.38984C17.3959 4.88409 16.9869 5.27604 16.468 5.27604C15.937 5.27719 15.5376 4.88639 15.5376 4.39214L15.5364 3.4611L8.36836 3.4703L8.36956 4.40018C8.36956 4.89558 7.97255 5.28639 7.44159 5.28639C6.91062 5.28754 6.51119 4.89788 6.51119 4.40248L6.50999 3.51742C4.15685 3.73926 2.85479 5.04041 2.85841 7.53351L2.85961 7.89099ZM15.9601 13.115V13.1277C15.9722 13.6564 16.4307 14.0575 16.987 14.0461C17.53 14.0334 17.9633 13.5955 17.9512 13.0667C17.9259 12.561 17.4902 12.1484 16.9484 12.1495C16.3933 12.161 15.9589 12.5863 15.9601 13.115ZM16.9566 18.2758C16.4015 18.2643 15.9538 17.8287 15.9526 17.3C15.9406 16.7712 16.3858 16.3333 16.9409 16.3206H16.953C17.5202 16.3206 17.9799 16.7563 17.9799 17.2965C17.9812 17.8367 17.5226 18.2747 16.9566 18.2758ZM10.9882 13.1334C11.0123 13.6621 11.4721 14.0748 12.0272 14.0518C12.5702 14.0277 13.0034 13.5909 12.9793 13.0622C12.966 12.5449 12.5195 12.1426 11.9765 12.1438C11.4214 12.1667 10.987 12.6047 10.9882 13.1334ZM12.032 18.2241C11.4769 18.2471 11.0184 17.8344 10.993 17.3057C10.993 16.777 11.4263 16.3402 11.9814 16.3161C12.5244 16.3149 12.9721 16.7172 12.9842 17.2333C13.0095 17.7632 12.5751 18.2 12.032 18.2241ZM6.01648 13.1736C6.04062 13.7023 6.50038 14.1161 7.05548 14.092C7.59851 14.069 8.03173 13.6311 8.00639 13.1023C7.99432 12.5851 7.54783 12.1828 7.00359 12.184C6.44849 12.2069 6.01528 12.6449 6.01648 13.1736ZM7.06024 18.2299C6.50514 18.2541 6.04658 17.8403 6.02124 17.3115C6.02004 16.7828 6.45446 16.3449 7.00956 16.3219C7.55259 16.3207 8.00029 16.723 8.01236 17.2403C8.0377 17.769 7.60448 18.2069 7.06024 18.2299Z" fill="#333333"/>
</svg>
