<svg width="24" height="24" viewBox="0 0 24 24" fill="none" xmlns="http://www.w3.org/2000/svg">
<g clip-path="url(#clip0_125_65)">
<path fill-rule="evenodd" clip-rule="evenodd" d="M18.216 2.89199C18.216 1.29599 19.512 0 21.108 0C22.704 0 24 1.29599 24 2.89199C24 4.48798 22.704 5.78397 21.108 5.78397C19.512 5.78397 18.216 4.48798 18.216 2.89199ZM13.5959 15.311L17.0639 10.8362L17.0159 10.8602C17.2079 10.5962 17.2439 10.2602 17.1119 9.96023C16.9811 9.66023 16.6919 9.45623 16.3811 9.43224C16.0559 9.39624 15.7331 9.54023 15.5399 9.80423L12.6371 13.5602L9.31196 10.9442C9.10797 10.7882 8.86797 10.727 8.62797 10.7522C8.38917 10.7882 8.17317 10.919 8.02797 11.111L4.47719 15.7322L4.40399 15.8402C4.19999 16.223 4.29599 16.715 4.65599 16.9802C4.82399 17.0882 5.00399 17.1602 5.20798 17.1602C5.48518 17.1722 5.74798 17.027 5.91598 16.8002L8.92797 12.923L12.3479 15.4922L12.4559 15.563C12.8399 15.767 13.3199 15.6722 13.5959 15.311ZM16.1399 2.13632C16.0919 2.43632 16.0679 2.73631 16.0679 3.03631C16.0679 5.7363 18.2519 7.91909 20.9399 7.91909C21.2399 7.91909 21.5279 7.88429 21.8279 7.83629V17.519C21.8279 21.5882 19.4279 24.0002 15.3479 24.0002H6.48117C2.39999 24.0002 0 21.5882 0 17.519V8.64029C0 4.56031 2.39999 2.13632 6.48117 2.13632H16.1399Z" fill="#333333"/>
</g>
<defs>
<clipPath id="clip0_125_65">
<rect width="24" height="24" fill="white"/>
</clipPath>
</defs>
</svg>
