<svg width="24" height="24" viewBox="0 0 24 24" fill="none" xmlns="http://www.w3.org/2000/svg">
<path fill-rule="evenodd" clip-rule="evenodd" d="M18.9227 7.45816H24C24 3.38151 21.5573 1 17.4187 1H6.58133C2.44267 1 0 3.38151 0 7.40616V16.1938C0 20.2185 2.44267 22.6 6.58133 22.6H17.4187C21.5573 22.6 24 20.2185 24 16.1938V15.8195H18.9227C16.5663 15.8195 14.656 13.957 14.656 11.6596C14.656 9.36219 16.5663 7.49976 18.9227 7.49976V7.45816ZM18.9227 9.24692H23.104C23.5988 9.24692 24 9.63803 24 10.1205V13.1572C23.9942 13.6373 23.5964 14.0251 23.104 14.0307H19.0187C17.8257 14.0464 16.7826 13.2501 16.512 12.1172C16.3765 11.414 16.5667 10.6883 17.0317 10.1347C17.4966 9.58107 18.1888 9.25612 18.9227 9.24692ZM19.104 12.4397H19.4986C20.0053 12.4397 20.416 12.0392 20.416 11.5453C20.416 11.0513 20.0053 10.6509 19.4986 10.6509H19.104C18.8616 10.6481 18.6283 10.74 18.4559 10.9061C18.2836 11.0722 18.1866 11.2986 18.1866 11.5349C18.1866 12.0305 18.5956 12.434 19.104 12.4397ZM5.6854 7.45822H12.4587C12.9654 7.45822 13.3761 7.05779 13.3761 6.56385C13.3761 6.0699 12.9654 5.66948 12.4587 5.66948H5.6854C5.18291 5.66945 4.77391 6.06357 4.76807 6.55345C4.76803 7.04911 5.17705 7.45252 5.6854 7.45822Z" fill="#333333"/>
</svg>
