<svg width="32" height="32" xmlns="http://www.w3.org/2000/svg">

 <g>
  <title>Layer 1</title>
  <g>
   <mask fill="black" height="21" width="87" y="10.7949" x="47" maskUnits="userSpaceOnUse" id="svg_1">
    <rect height="21" width="87" y="10.7949" x="47" fill="white"/>
    <path d="m55.1796,25.1956c-1.9434,0 -3.5538,-0.3748 -4.8314,-1.1245c-1.2776,-0.7497 -2.0603,-1.804 -2.3482,-3.1628l2.2942,0c0.2879,0.8746 0.8187,1.4994 1.5925,1.8742c0.7917,0.3749 1.8893,0.5623 3.2929,0.5623c1.1336,0 2.0513,-0.164 2.753,-0.492c0.7198,-0.3436 1.0797,-0.82 1.0797,-1.4291c0,-0.3748 -0.18,-0.6872 -0.5399,-0.9371c-0.3598,-0.2655 -0.7467,-0.4529 -1.1606,-0.5623c-0.4138,-0.1093 -1.1246,-0.2733 -2.1322,-0.4919c-0.234,-0.0469 -0.4139,-0.0859 -0.5399,-0.1172c-2.2312,-0.4842 -3.7697,-0.9605 -4.6154,-1.4291c-0.8457,-0.4685 -1.2686,-1.2026 -1.2686,-2.2022c0,-1.2183 0.5489,-2.171 1.6465,-2.8582c1.1156,-0.6872 2.5731,-1.0308 4.3725,-1.0308c1.7274,0 3.1309,0.328 4.2106,0.9839c1.0976,0.6404 1.7994,1.5463 2.1052,2.7177l-2.2672,0c-0.5398,-1.2339 -1.8713,-1.8508 -3.9946,-1.8508c-1.1696,0 -2.0963,0.1796 -2.7801,0.5388c-0.6837,0.3436 -1.0256,0.7966 -1.0256,1.3588c0,0.4842 0.2789,0.8434 0.8367,1.0777c0.5578,0.2187 1.6734,0.5154 3.3469,0.8903c0.7917,0.1718 1.3855,0.3045 1.7813,0.3982c0.4139,0.0938 0.8997,0.2265 1.4575,0.3983c0.5759,0.1718 0.9987,0.3358 1.2686,0.492c0.2699,0.1562 0.5488,0.3592 0.8367,0.6091c0.2879,0.2343 0.4859,0.5076 0.5938,0.82c0.108,0.2968 0.162,0.6404 0.162,1.0308c0,1.2651 -0.5848,2.2413 -1.7544,2.9285c-1.1516,0.6716 -2.6091,1.0074 -4.3725,1.0074z"/>
    <path d="m81.1525,12.0526l2.2403,0l-4.3725,12.8853l-2.6991,0l-1.4575,-4.3342l-1.9164,-6.5363l-0.4048,0l-1.9164,6.5363l-1.4845,4.3342l-2.6991,0l-4.3725,-12.8853l2.2403,0l1.3765,4.053l2.1593,6.8175l2.1322,-6.8175l1.3766,-4.053l2.753,0l1.3766,4.053l2.1322,6.7941l2.1593,-6.7941l1.3765,-4.053z"/>
    <path d="m91.4734,11.7949c2.3032,0 4.1385,0.6794 5.5061,2.0382c1.3675,1.3588 2.0063,3.1081 1.9163,5.2478l-12.7126,0c0.1079,1.3276 0.6567,2.3741 1.6464,3.1394c0.9897,0.7653 2.2402,1.1479 3.7517,1.1479c2.2133,0 3.7607,-0.7497 4.6424,-2.249l2.3213,0c-0.6118,1.3275 -1.5385,2.3427 -2.7801,3.0456c-1.2416,0.6872 -2.6631,1.0308 -4.2645,1.0308c-2.2133,0 -4.0397,-0.6169 -5.4792,-1.8508c-1.4215,-1.2495 -2.1323,-2.8504 -2.1323,-4.8027c0,-1.9523 0.7108,-3.561 2.1323,-4.8261c1.4215,-1.2808 3.2389,-1.9211 5.4522,-1.9211zm0,1.8273c-1.3316,0 -2.4652,0.3358 -3.4009,1.0074c-0.9177,0.6716 -1.5115,1.5463 -1.7814,2.624l10.1756,0c-0.252,-1.0933 -0.8188,-1.968 -1.7005,-2.624c-0.8817,-0.6716 -1.9793,-1.0074 -3.2928,-1.0074z"/>
    <path d="m108.215,11.7949c2.303,0 4.139,0.6794 5.506,2.0382c1.368,1.3588 2.006,3.1081 1.917,5.2478l-12.713,0c0.108,1.3276 0.657,2.3741 1.646,3.1394c0.99,0.7653 2.241,1.1479 3.752,1.1479c2.213,0 3.761,-0.7497 4.642,-2.249l2.322,0c-0.612,1.3275 -1.539,2.3427 -2.78,3.0456c-1.242,0.6872 -2.664,1.0308 -4.265,1.0308c-2.213,0 -4.04,-0.6169 -5.479,-1.8508c-1.422,-1.2495 -2.132,-2.8504 -2.132,-4.8027c0,-1.9523 0.71,-3.561 2.132,-4.8261c1.421,-1.2808 3.239,-1.9211 5.452,-1.9211zm0,1.8273c-1.332,0 -2.465,0.3358 -3.401,1.0074c-0.917,0.6716 -1.511,1.5463 -1.781,2.624l10.175,0c-0.252,-1.0933 -0.818,-1.968 -1.7,-2.624c-0.882,-0.6716 -1.979,-1.0074 -3.293,-1.0074z"/>
    <path d="m126.063,11.7949c2.016,0 3.671,0.6325 4.967,1.8976c1.313,1.2495 1.97,2.8504 1.97,4.8027c0,1.9524 -0.657,3.5611 -1.97,4.8262c-1.314,1.2495 -2.978,1.8742 -4.994,1.8742c-1.259,0 -2.384,-0.2499 -3.373,-0.7497c-0.972,-0.5154 -1.746,-1.2182 -2.322,-2.1085l0,8.4575l-2.24,0l0,-18.7423l2.24,0l-0.027,2.3628c0.576,-0.9058 2.01,-1.6573 2.376,-1.8474c0.989,-0.5154 2.114,-0.7731 3.373,-0.7731zm-0.431,11.5499c1.493,0 2.717,-0.4529 3.67,-1.3588c0.954,-0.9059 1.431,-2.0695 1.431,-3.4908c0,-1.4056 -0.477,-2.5614 -1.431,-3.4673c-0.953,-0.9215 -2.177,-1.3822 -3.67,-1.3822c-1.53,0 -2.799,0.4607 -3.806,1.3822c-1.008,0.9059 -1.512,2.0617 -1.512,3.4673c0,1.4057 0.504,2.5693 1.512,3.4908c1.007,0.9059 2.276,1.3588 3.806,1.3588z"/>
   </mask>
   <path fill="black" d="m39.52087,20.34079c-1.37539,0 -2.51512,-0.26526 -3.41931,-0.79584c-0.90419,-0.53058 -1.45813,-1.27674 -1.66188,-2.2384l1.62367,0c0.20375,0.61898 0.57942,1.06116 1.12705,1.32642c0.56031,0.26533 1.33711,0.39795 2.33047,0.39795c0.80228,0 1.45176,-0.11607 1.94837,-0.3482c0.50942,-0.24317 0.76413,-0.58034 0.76413,-1.01141c0,-0.26526 -0.12739,-0.48635 -0.3821,-0.66321c-0.25464,-0.1879 -0.52846,-0.32053 -0.82139,-0.39795c-0.29286,-0.07735 -0.79591,-0.19342 -1.50901,-0.34813c-0.16561,-0.03319 -0.29293,-0.06079 -0.3821,-0.08295c-1.57908,-0.34268 -2.66792,-0.67977 -3.26644,-1.01141c-0.59852,-0.33157 -0.89782,-0.85111 -0.89782,-1.55855c0,-0.86222 0.38847,-1.53647 1.16527,-2.02282c0.78954,-0.48635 1.82105,-0.72952 3.09453,-0.72952c1.22253,0 2.21582,0.23213 2.97995,0.69633c0.7768,0.45323 1.27348,1.09436 1.4899,1.92339l-1.60456,0c-0.38203,-0.87326 -1.32437,-1.30986 -2.82708,-1.30986c-0.82776,0 -1.48361,0.12711 -1.96755,0.38132c-0.48387,0.24317 -0.72584,0.56377 -0.72584,0.96166c0,0.34268 0.19738,0.5969 0.59215,0.76272c0.39477,0.15478 1.18431,0.36476 2.36869,0.63009c0.56031,0.12159 0.98055,0.2155 1.26067,0.28182c0.29293,0.06638 0.63674,0.1603 1.03151,0.28189c0.40758,0.12159 0.70681,0.23765 0.89782,0.3482c0.19102,0.11055 0.3884,0.25422 0.59215,0.43108c0.20375,0.16582 0.34388,0.35924 0.42025,0.58034c0.07643,0.21005 0.11465,0.45323 0.11465,0.72952c0,0.89534 -0.41388,1.58623 -1.24163,2.07258c-0.81502,0.47531 -1.84653,0.71296 -3.09453,0.71296z"/>
   <path fill="black" d="m57.90257,11.03915l1.58552,0l-3.09453,9.11926l-1.91022,0l-1.03151,-3.06743l-1.35629,-4.62591l-0.28649,0l-1.35629,4.62591l-1.05062,3.06743l-1.91022,0l-3.09453,-9.11926l1.58552,0l0.97418,2.86841l1.52819,4.82492l1.50901,-4.82492l0.97426,-2.86841l1.94837,0l0.97426,2.86841l1.50901,4.80836l1.52819,-4.80836l0.97418,-2.86841z"/>
   <path fill="black" d="m65.20694,10.85676c1.63003,0 2.92892,0.48083 3.89681,1.44249c0.96782,0.96166 1.41991,2.19968 1.35622,3.71401l-8.99704,0c0.07636,0.93958 0.46476,1.68021 1.1652,2.22184c0.70044,0.54162 1.58545,0.8124 2.65518,0.8124c1.56641,0 2.66155,-0.53058 3.28555,-1.59168l1.64284,0c-0.43299,0.93951 -1.08884,1.65799 -1.96755,2.15545c-0.87871,0.48635 -1.88475,0.72952 -3.0181,0.72952c-1.56641,0 -2.859,-0.4366 -3.87777,-1.30986c-1.00603,-0.8843 -1.50908,-2.0173 -1.50908,-3.399c0,-1.38169 0.50305,-2.52021 1.50908,-3.41556c1.00603,-0.90646 2.29225,-1.35961 3.85866,-1.35961zm0,1.29323c-0.94241,0 -1.74469,0.23765 -2.40691,0.71296c-0.64948,0.47531 -1.06973,1.09436 -1.26074,1.85707l7.20154,0c-0.17835,-0.77376 -0.57949,-1.3928 -1.20349,-1.85707c-0.624,-0.47531 -1.4008,-0.71296 -2.3304,-0.71296z"/>
   <path fill="black" d="m77.0554,10.85676c1.62989,0 2.92928,0.48083 3.89674,1.44249c0.96817,0.96166 1.4197,2.19968 1.35671,3.71401l-8.99732,0c0.07643,0.93958 0.46498,1.68021 1.16492,2.22184c0.70065,0.54162 1.58601,0.8124 2.65539,0.8124c1.5662,0 2.66176,-0.53058 3.28526,-1.59168l1.64334,0c-0.43313,0.93951 -1.08919,1.65799 -1.96748,2.15545c-0.879,0.48635 -1.88538,0.72952 -3.01845,0.72952c-1.5662,0 -2.85921,-0.4366 -3.87763,-1.30986c-1.00639,-0.8843 -1.50887,-2.0173 -1.50887,-3.399c0,-1.38169 0.50249,-2.52021 1.50887,-3.41556c1.00568,-0.90646 2.29232,-1.35961 3.85852,-1.35961zm0,1.29323c-0.94269,0 -1.74454,0.23765 -2.40698,0.71296c-0.64898,0.47531 -1.06937,1.09436 -1.26046,1.85707l7.20111,0c-0.17835,-0.77376 -0.57892,-1.3928 -1.20313,-1.85707c-0.62421,-0.47531 -1.40059,-0.71296 -2.33054,-0.71296z"/>
   <path fill="black" d="m89.6869,10.85676c1.42678,0 2.59806,0.44764 3.51528,1.34298c0.92924,0.8843 1.39422,2.0173 1.39422,3.399c0,1.38176 -0.46498,2.52028 -1.39422,3.41563c-0.92995,0.8843 -2.10761,1.32642 -3.53438,1.32642c-0.89103,0 -1.68722,-0.17686 -2.38716,-0.53058c-0.68791,-0.36476 -1.23569,-0.86215 -1.64334,-1.49224l0,5.98559l-1.58531,0l0,-13.26441l1.58531,0l-0.01911,1.67222c0.40765,-0.64106 1.42253,-1.17291 1.68156,-1.30745c0.69994,-0.36476 1.49613,-0.54714 2.38716,-0.54714zm-0.30503,8.17417c1.05664,0 1.92289,-0.32053 2.59735,-0.96166c0.67517,-0.64113 1.01276,-1.46464 1.01276,-2.47053c0,-0.99478 -0.33759,-1.81277 -1.01276,-2.4539c-0.67446,-0.65217 -1.54072,-0.97822 -2.59735,-0.97822c-1.08282,0 -1.98093,0.32605 -2.69361,0.97822c-0.71339,0.64113 -1.07008,1.45912 -1.07008,2.4539c0,0.99485 0.35669,1.81836 1.07008,2.47053c0.71268,0.64113 1.61078,0.96166 2.69361,0.96166z"/>
   <path mask="url(#svg_1)" stroke-width="0.4" stroke="black" d="m39.52087,20.34079c-1.37539,0 -2.51512,-0.26526 -3.41931,-0.79584c-0.90419,-0.53058 -1.45813,-1.27674 -1.66188,-2.2384l1.62367,0c0.20375,0.61898 0.57942,1.06116 1.12705,1.32642c0.56031,0.26533 1.33711,0.39795 2.33047,0.39795c0.80228,0 1.45176,-0.11607 1.94837,-0.3482c0.50942,-0.24317 0.76413,-0.58034 0.76413,-1.01141c0,-0.26526 -0.12739,-0.48635 -0.3821,-0.66321c-0.25464,-0.1879 -0.52846,-0.32053 -0.82139,-0.39795c-0.29286,-0.07735 -0.79591,-0.19342 -1.50901,-0.34813c-0.16561,-0.03319 -0.29293,-0.06079 -0.3821,-0.08295c-1.57908,-0.34268 -2.66792,-0.67977 -3.26644,-1.01141c-0.59852,-0.33157 -0.89782,-0.85111 -0.89782,-1.55855c0,-0.86222 0.38847,-1.53647 1.16527,-2.02282c0.78954,-0.48635 1.82105,-0.72952 3.09453,-0.72952c1.22253,0 2.21582,0.23213 2.97995,0.69633c0.7768,0.45323 1.27348,1.09436 1.4899,1.92339l-1.60456,0c-0.38203,-0.87326 -1.32437,-1.30986 -2.82708,-1.30986c-0.82776,0 -1.48361,0.12711 -1.96755,0.38132c-0.48387,0.24317 -0.72584,0.56377 -0.72584,0.96166c0,0.34268 0.19738,0.5969 0.59215,0.76272c0.39477,0.15478 1.18431,0.36476 2.36869,0.63009c0.56031,0.12159 0.98055,0.2155 1.26067,0.28182c0.29293,0.06638 0.63674,0.1603 1.03151,0.28189c0.40758,0.12159 0.70681,0.23765 0.89782,0.3482c0.19102,0.11055 0.3884,0.25422 0.59215,0.43108c0.20375,0.16582 0.34388,0.35924 0.42025,0.58034c0.07643,0.21005 0.11465,0.45323 0.11465,0.72952c0,0.89534 -0.41388,1.58623 -1.24163,2.07258c-0.81502,0.47531 -1.84653,0.71296 -3.09453,0.71296z"/>
   <path mask="url(#svg_1)" stroke-width="0.4" stroke="black" d="m57.90257,11.03915l1.58552,0l-3.09453,9.11926l-1.91022,0l-1.03151,-3.06743l-1.35629,-4.62591l-0.28649,0l-1.35629,4.62591l-1.05062,3.06743l-1.91022,0l-3.09453,-9.11926l1.58552,0l0.97418,2.86841l1.52819,4.82492l1.50901,-4.82492l0.97426,-2.86841l1.94837,0l0.97426,2.86841l1.50901,4.80836l1.52819,-4.80836l0.97418,-2.86841z"/>
   <path mask="url(#svg_1)" stroke-width="0.4" stroke="black" d="m65.20694,10.85676c1.63003,0 2.92892,0.48083 3.89681,1.44249c0.96782,0.96166 1.41991,2.19968 1.35622,3.71401l-8.99704,0c0.07636,0.93958 0.46476,1.68021 1.1652,2.22184c0.70044,0.54162 1.58545,0.8124 2.65518,0.8124c1.56641,0 2.66155,-0.53058 3.28555,-1.59168l1.64284,0c-0.43299,0.93951 -1.08884,1.65799 -1.96755,2.15545c-0.87871,0.48635 -1.88475,0.72952 -3.0181,0.72952c-1.56641,0 -2.859,-0.4366 -3.87777,-1.30986c-1.00603,-0.8843 -1.50908,-2.0173 -1.50908,-3.399c0,-1.38169 0.50305,-2.52021 1.50908,-3.41556c1.00603,-0.90646 2.29225,-1.35961 3.85866,-1.35961zm0,1.29323c-0.94241,0 -1.74469,0.23765 -2.40691,0.71296c-0.64948,0.47531 -1.06973,1.09436 -1.26074,1.85707l7.20154,0c-0.17835,-0.77376 -0.57949,-1.3928 -1.20349,-1.85707c-0.624,-0.47531 -1.4008,-0.71296 -2.3304,-0.71296z"/>
   <path mask="url(#svg_1)" stroke-width="0.4" stroke="black" d="m77.0554,10.85676c1.62989,0 2.92928,0.48083 3.89674,1.44249c0.96817,0.96166 1.4197,2.19968 1.35671,3.71401l-8.99732,0c0.07643,0.93958 0.46498,1.68021 1.16492,2.22184c0.70065,0.54162 1.58601,0.8124 2.65539,0.8124c1.5662,0 2.66176,-0.53058 3.28526,-1.59168l1.64334,0c-0.43313,0.93951 -1.08919,1.65799 -1.96748,2.15545c-0.879,0.48635 -1.88538,0.72952 -3.01845,0.72952c-1.5662,0 -2.85921,-0.4366 -3.87763,-1.30986c-1.00639,-0.8843 -1.50887,-2.0173 -1.50887,-3.399c0,-1.38169 0.50249,-2.52021 1.50887,-3.41556c1.00568,-0.90646 2.29232,-1.35961 3.85852,-1.35961zm0,1.29323c-0.94269,0 -1.74454,0.23765 -2.40698,0.71296c-0.64898,0.47531 -1.06937,1.09436 -1.26046,1.85707l7.20111,0c-0.17835,-0.77376 -0.57892,-1.3928 -1.20313,-1.85707c-0.62421,-0.47531 -1.40059,-0.71296 -2.33054,-0.71296z"/>
   <path mask="url(#svg_1)" stroke-width="0.4" stroke="black" d="m89.6869,10.85676c1.42678,0 2.59806,0.44764 3.51528,1.34298c0.92924,0.8843 1.39422,2.0173 1.39422,3.399c0,1.38176 -0.46498,2.52028 -1.39422,3.41563c-0.92995,0.8843 -2.10761,1.32642 -3.53438,1.32642c-0.89103,0 -1.68722,-0.17686 -2.38716,-0.53058c-0.68791,-0.36476 -1.23569,-0.86215 -1.64334,-1.49224l0,5.98559l-1.58531,0l0,-13.26441l1.58531,0l-0.01911,1.67222c0.40765,-0.64106 1.42253,-1.17291 1.68156,-1.30745c0.69994,-0.36476 1.49613,-0.54714 2.38716,-0.54714zm-0.30503,8.17417c1.05664,0 1.92289,-0.32053 2.59735,-0.96166c0.67517,-0.64113 1.01276,-1.46464 1.01276,-2.47053c0,-0.99478 -0.33759,-1.81277 -1.01276,-2.4539c-0.67446,-0.65217 -1.54072,-0.97822 -2.59735,-0.97822c-1.08282,0 -1.98093,0.32605 -2.69361,0.97822c-0.71339,0.64113 -1.07008,1.45912 -1.07008,2.4539c0,0.99485 0.35669,1.81836 1.07008,2.47053c0.71268,0.64113 1.61078,0.96166 2.69361,0.96166z"/>
   <path fill-opacity="0.5" fill="#F4793E" d="m4.57987,20.35027l11.19219,-6.71604c0.53214,-0.31933 1.19535,-0.31197 1.72055,0.0189l10.66161,6.71745c1.08983,0.68678 1.02967,2.31377 -0.108,2.9159l-10.65892,5.64136c-0.47071,0.24912 -1.03073,0.25471 -1.50618,0.015l-11.19485,-5.64284c-1.17663,-0.593 -1.23717,-2.27116 -0.1064,-2.94973z"/>
   <path fill-opacity="0.7" fill="#F4793E" d="m3.09183,15.04756l11.19223,-6.71603c0.53207,-0.3193 1.19528,-0.31202 1.72048,0.01886l10.66161,6.71748c1.0899,0.68678 1.02967,2.31377 -0.10793,2.9159l-10.65892,5.64136c-0.47078,0.24912 -1.0308,0.25471 -1.50625,0.015l-11.19482,-5.6427c-1.17663,-0.59315 -1.23717,-2.27131 -0.1064,-2.94987z"/>
   <path fill="#FF8144" d="m4.57987,9.74486l11.19219,-6.71604c0.53214,-0.3193 1.19535,-0.31203 1.72055,0.01886l10.66161,6.71757c1.08983,0.68671 1.02967,2.31377 -0.108,2.91583l-10.65892,5.64128c-0.47071,0.24919 -1.03073,0.25478 -1.50618,0.01515l-11.19485,-5.64284c-1.17663,-0.59307 -1.23717,-2.27123 -0.1064,-2.9498z"/>
  </g>
 </g>
</svg>