<svg width="163" height="163" xmlns="http://www.w3.org/2000/svg">
 <g>
  <title>Layer 1</title>
  <g id="svg_2">
   <mask id="svg_1" maskUnits="userSpaceOnUse" x="47" y="10.7949" width="87" height="21" fill="black">
    <rect id="svg_3" fill="white" x="47" y="10.7949" width="87" height="21"/>
    <path id="svg_4" d="m55.1796,25.1956c-1.9434,0 -3.5538,-0.3748 -4.8314,-1.1245c-1.2776,-0.7497 -2.0603,-1.804 -2.3482,-3.1628l2.2942,0c0.2879,0.8746 0.8187,1.4994 1.5925,1.8742c0.7917,0.3749 1.8893,0.5623 3.2929,0.5623c1.1336,0 2.0513,-0.164 2.753,-0.492c0.7198,-0.3436 1.0797,-0.82 1.0797,-1.4291c0,-0.3748 -0.18,-0.6872 -0.5399,-0.9371c-0.3598,-0.2655 -0.7467,-0.4529 -1.1606,-0.5623c-0.4138,-0.1093 -1.1246,-0.2733 -2.1322,-0.4919c-0.234,-0.0469 -0.4139,-0.0859 -0.5399,-0.1172c-2.2312,-0.4842 -3.7697,-0.9605 -4.6154,-1.4291c-0.8457,-0.4685 -1.2686,-1.2026 -1.2686,-2.2022c0,-1.2183 0.5489,-2.171 1.6465,-2.8582c1.1156,-0.6872 2.5731,-1.0308 4.3725,-1.0308c1.7274,0 3.1309,0.328 4.2106,0.9839c1.0976,0.6404 1.7994,1.5463 2.1052,2.7177l-2.2672,0c-0.5398,-1.2339 -1.8713,-1.8508 -3.9946,-1.8508c-1.1696,0 -2.0963,0.1796 -2.7801,0.5388c-0.6837,0.3436 -1.0256,0.7966 -1.0256,1.3588c0,0.4842 0.2789,0.8434 0.8367,1.0777c0.5578,0.2187 1.6734,0.5154 3.3469,0.8903c0.7917,0.1718 1.3855,0.3045 1.7813,0.3982c0.4139,0.0938 0.8997,0.2265 1.4575,0.3983c0.5759,0.1718 0.9987,0.3358 1.2686,0.492c0.2699,0.1562 0.5488,0.3592 0.8367,0.6091c0.2879,0.2343 0.4859,0.5076 0.5938,0.82c0.108,0.2968 0.162,0.6404 0.162,1.0308c0,1.2651 -0.5848,2.2413 -1.7544,2.9285c-1.1516,0.6716 -2.6091,1.0074 -4.3725,1.0074z"/>
    <path id="svg_5" d="m81.1525,12.0526l2.2403,0l-4.3725,12.8853l-2.6991,0l-1.4575,-4.3342l-1.9164,-6.5363l-0.4048,0l-1.9164,6.5363l-1.4845,4.3342l-2.6991,0l-4.3725,-12.8853l2.2403,0l1.3765,4.053l2.1593,6.8175l2.1322,-6.8175l1.3766,-4.053l2.753,0l1.3766,4.053l2.1322,6.7941l2.1593,-6.7941l1.3765,-4.053z"/>
    <path id="svg_6" d="m91.4734,11.7949c2.3032,0 4.1385,0.6794 5.5061,2.0382c1.3675,1.3588 2.0063,3.1081 1.9163,5.2478l-12.7126,0c0.1079,1.3276 0.6567,2.3741 1.6464,3.1394c0.9897,0.7653 2.2402,1.1479 3.7517,1.1479c2.2133,0 3.7607,-0.7497 4.6424,-2.249l2.3213,0c-0.6118,1.3275 -1.5385,2.3427 -2.7801,3.0456c-1.2416,0.6872 -2.6631,1.0308 -4.2645,1.0308c-2.2133,0 -4.0397,-0.6169 -5.4792,-1.8508c-1.4215,-1.2495 -2.1323,-2.8504 -2.1323,-4.8027c0,-1.9523 0.7108,-3.561 2.1323,-4.8261c1.4215,-1.2808 3.2389,-1.9211 5.4522,-1.9211zm0,1.8273c-1.3316,0 -2.4652,0.3358 -3.4009,1.0074c-0.9177,0.6716 -1.5115,1.5463 -1.7814,2.624l10.1756,0c-0.252,-1.0933 -0.8188,-1.968 -1.7005,-2.624c-0.8817,-0.6716 -1.9793,-1.0074 -3.2928,-1.0074z"/>
    <path id="svg_7" d="m108.215,11.7949c2.303,0 4.139,0.6794 5.506,2.0382c1.368,1.3588 2.006,3.1081 1.917,5.2478l-12.713,0c0.108,1.3276 0.657,2.3741 1.646,3.1394c0.99,0.7653 2.241,1.1479 3.752,1.1479c2.213,0 3.761,-0.7497 4.642,-2.249l2.322,0c-0.612,1.3275 -1.539,2.3427 -2.78,3.0456c-1.242,0.6872 -2.664,1.0308 -4.265,1.0308c-2.213,0 -4.04,-0.6169 -5.479,-1.8508c-1.422,-1.2495 -2.132,-2.8504 -2.132,-4.8027c0,-1.9523 0.71,-3.561 2.132,-4.8261c1.421,-1.2808 3.239,-1.9211 5.452,-1.9211zm0,1.8273c-1.332,0 -2.465,0.3358 -3.401,1.0074c-0.917,0.6716 -1.511,1.5463 -1.781,2.624l10.175,0c-0.252,-1.0933 -0.818,-1.968 -1.7,-2.624c-0.882,-0.6716 -1.979,-1.0074 -3.293,-1.0074z"/>
    <path id="svg_11" d="m126.063,11.7949c2.016,0 3.671,0.6325 4.967,1.8976c1.313,1.2495 1.97,2.8504 1.97,4.8027c0,1.9524 -0.657,3.5611 -1.97,4.8262c-1.314,1.2495 -2.978,1.8742 -4.994,1.8742c-1.259,0 -2.384,-0.2499 -3.373,-0.7497c-0.972,-0.5154 -1.746,-1.2182 -2.322,-2.1085l0,8.4575l-2.24,0l0,-18.7423l2.24,0l-0.027,2.3628c0.576,-0.9058 2.01,-1.6573 2.376,-1.8474c0.989,-0.5154 2.114,-0.7731 3.373,-0.7731zm-0.431,11.5499c1.493,0 2.717,-0.4529 3.67,-1.3588c0.954,-0.9059 1.431,-2.0695 1.431,-3.4908c0,-1.4056 -0.477,-2.5614 -1.431,-3.4673c-0.953,-0.9215 -2.177,-1.3822 -3.67,-1.3822c-1.53,0 -2.799,0.4607 -3.806,1.3822c-1.008,0.9059 -1.512,2.0617 -1.512,3.4673c0,1.4057 0.504,2.5693 1.512,3.4908c1.007,0.9059 2.276,1.3588 3.806,1.3588z"/>
   </mask>
   <g id="svg_12">
    <mask id="svg_8" maskUnits="userSpaceOnUse" x="47" y="10.7949" width="87" height="21" fill="black">
     <rect id="svg_13" fill="white" x="47" y="10.7949" width="87" height="21"/>
     <path id="svg_14" d="m55.1796,25.1956c-1.9434,0 -3.5538,-0.3748 -4.8314,-1.1245c-1.2776,-0.7497 -2.0603,-1.804 -2.3482,-3.1628l2.2942,0c0.2879,0.8746 0.8187,1.4994 1.5925,1.8742c0.7917,0.3749 1.8893,0.5623 3.2929,0.5623c1.1336,0 2.0513,-0.164 2.753,-0.492c0.7198,-0.3436 1.0797,-0.82 1.0797,-1.4291c0,-0.3748 -0.18,-0.6872 -0.5399,-0.9371c-0.3598,-0.2655 -0.7467,-0.4529 -1.1606,-0.5623c-0.4138,-0.1093 -1.1246,-0.2733 -2.1322,-0.4919c-0.234,-0.0469 -0.4139,-0.0859 -0.5399,-0.1172c-2.2312,-0.4842 -3.7697,-0.9605 -4.6154,-1.4291c-0.8457,-0.4685 -1.2686,-1.2026 -1.2686,-2.2022c0,-1.2183 0.5489,-2.171 1.6465,-2.8582c1.1156,-0.6872 2.5731,-1.0308 4.3725,-1.0308c1.7274,0 3.1309,0.328 4.2106,0.9839c1.0976,0.6404 1.7994,1.5463 2.1052,2.7177l-2.2672,0c-0.5398,-1.2339 -1.8713,-1.8508 -3.9946,-1.8508c-1.1696,0 -2.0963,0.1796 -2.7801,0.5388c-0.6837,0.3436 -1.0256,0.7966 -1.0256,1.3588c0,0.4842 0.2789,0.8434 0.8367,1.0777c0.5578,0.2187 1.6734,0.5154 3.3469,0.8903c0.7917,0.1718 1.3855,0.3045 1.7813,0.3982c0.4139,0.0938 0.8997,0.2265 1.4575,0.3983c0.5759,0.1718 0.9987,0.3358 1.2686,0.492c0.2699,0.1562 0.5488,0.3592 0.8367,0.6091c0.2879,0.2343 0.4859,0.5076 0.5938,0.82c0.108,0.2968 0.162,0.6404 0.162,1.0308c0,1.2651 -0.5848,2.2413 -1.7544,2.9285c-1.1516,0.6716 -2.6091,1.0074 -4.3725,1.0074z"/>
     <path id="svg_15" d="m81.1525,12.0526l2.2403,0l-4.3725,12.8853l-2.6991,0l-1.4575,-4.3342l-1.9164,-6.5363l-0.4048,0l-1.9164,6.5363l-1.4845,4.3342l-2.6991,0l-4.3725,-12.8853l2.2403,0l1.3765,4.053l2.1593,6.8175l2.1322,-6.8175l1.3766,-4.053l2.753,0l1.3766,4.053l2.1322,6.7941l2.1593,-6.7941l1.3765,-4.053z"/>
     <path id="svg_17" d="m91.4734,11.7949c2.3032,0 4.1385,0.6794 5.5061,2.0382c1.3675,1.3588 2.0063,3.1081 1.9163,5.2478l-12.7126,0c0.1079,1.3276 0.6567,2.3741 1.6464,3.1394c0.9897,0.7653 2.2402,1.1479 3.7517,1.1479c2.2133,0 3.7607,-0.7497 4.6424,-2.249l2.3213,0c-0.6118,1.3275 -1.5385,2.3427 -2.7801,3.0456c-1.2416,0.6872 -2.6631,1.0308 -4.2645,1.0308c-2.2133,0 -4.0397,-0.6169 -5.4792,-1.8508c-1.4215,-1.2495 -2.1323,-2.8504 -2.1323,-4.8027c0,-1.9523 0.7108,-3.561 2.1323,-4.8261c1.4215,-1.2808 3.2389,-1.9211 5.4522,-1.9211zm0,1.8273c-1.3316,0 -2.4652,0.3358 -3.4009,1.0074c-0.9177,0.6716 -1.5115,1.5463 -1.7814,2.624l10.1756,0c-0.252,-1.0933 -0.8188,-1.968 -1.7005,-2.624c-0.8817,-0.6716 -1.9793,-1.0074 -3.2928,-1.0074z"/>
     <path id="svg_18" d="m108.215,11.7949c2.303,0 4.139,0.6794 5.506,2.0382c1.368,1.3588 2.006,3.1081 1.917,5.2478l-12.713,0c0.108,1.3276 0.657,2.3741 1.646,3.1394c0.99,0.7653 2.241,1.1479 3.752,1.1479c2.213,0 3.761,-0.7497 4.642,-2.249l2.322,0c-0.612,1.3275 -1.539,2.3427 -2.78,3.0456c-1.242,0.6872 -2.664,1.0308 -4.265,1.0308c-2.213,0 -4.04,-0.6169 -5.479,-1.8508c-1.422,-1.2495 -2.132,-2.8504 -2.132,-4.8027c0,-1.9523 0.71,-3.561 2.132,-4.8261c1.421,-1.2808 3.239,-1.9211 5.452,-1.9211zm0,1.8273c-1.332,0 -2.465,0.3358 -3.401,1.0074c-0.917,0.6716 -1.511,1.5463 -1.781,2.624l10.175,0c-0.252,-1.0933 -0.818,-1.968 -1.7,-2.624c-0.882,-0.6716 -1.979,-1.0074 -3.293,-1.0074z"/>
     <path id="svg_19" d="m126.063,11.7949c2.016,0 3.671,0.6325 4.967,1.8976c1.313,1.2495 1.97,2.8504 1.97,4.8027c0,1.9524 -0.657,3.5611 -1.97,4.8262c-1.314,1.2495 -2.978,1.8742 -4.994,1.8742c-1.259,0 -2.384,-0.2499 -3.373,-0.7497c-0.972,-0.5154 -1.746,-1.2182 -2.322,-2.1085l0,8.4575l-2.24,0l0,-18.7423l2.24,0l-0.027,2.3628c0.576,-0.9058 2.01,-1.6573 2.376,-1.8474c0.989,-0.5154 2.114,-0.7731 3.373,-0.7731zm-0.431,11.5499c1.493,0 2.717,-0.4529 3.67,-1.3588c0.954,-0.9059 1.431,-2.0695 1.431,-3.4908c0,-1.4056 -0.477,-2.5614 -1.431,-3.4673c-0.953,-0.9215 -2.177,-1.3822 -3.67,-1.3822c-1.53,0 -2.799,0.4607 -3.806,1.3822c-1.008,0.9059 -1.512,2.0617 -1.512,3.4673c0,1.4057 0.504,2.5693 1.512,3.4908c1.007,0.9059 2.276,1.3588 3.806,1.3588z"/>
    </mask>
    <path id="svg_20" d="m1054.55113,391.6947c-17.67601,0 -32.32325,-3.40896 -43.94353,-10.22778c-11.62029,-6.81882 -18.73926,-16.40811 -21.35783,-28.76694l20.86668,0c2.61857,7.95484 7.44641,13.63765 14.48443,17.04661c7.20083,3.40987 17.18395,5.11435 29.95026,5.11435c10.31055,0 18.6574,-1.49165 25.03965,-4.47494c6.54687,-3.12518 9.82031,-7.45823 9.82031,-12.99824c0,-3.40896 -1.63717,-6.25036 -4.91061,-8.5233c-3.27253,-2.41483 -6.79154,-4.11931 -10.55613,-5.11435c-3.76368,-0.99413 -10.22869,-2.48577 -19.39322,-4.47403c-2.12832,-0.42657 -3.76459,-0.7813 -4.91061,-1.06598c-20.29367,-4.40399 -34.28694,-8.73614 -41.97893,-12.99824c-7.69198,-4.2612 -11.53843,-10.93813 -11.53843,-20.0299c0,-11.08093 4.99247,-19.74612 14.97558,-25.99648c10.14683,-6.25036 23.40338,-9.37554 39.76965,-9.37554c15.7114,0 28.4768,2.98329 38.29711,8.94897c9.98312,5.8247 16.36627,14.06422 19.14764,24.71858l-20.6211,0c-4.9097,-11.22282 -17.02023,-16.83377 -36.3325,-16.83377c-10.63798,0 -19.0667,1.63353 -25.28613,4.9006c-6.21853,3.12518 -9.32825,7.2454 -9.32825,12.35883c0,4.40399 2.53671,7.67106 7.61012,9.80212c5.07342,1.98916 15.22025,4.68777 30.44141,8.09764c7.20083,1.56259 12.60168,2.76955 16.20164,3.62179c3.76459,0.85315 8.18313,2.06011 13.25655,3.6227c5.23804,1.56259 9.08358,3.05424 11.53843,4.47494c2.45485,1.4207 4.99156,3.26707 7.61012,5.54001c2.61857,2.13105 4.41946,4.61683 5.40085,7.45823c0.9823,2.69952 1.47346,5.8247 1.47346,9.37554c0,11.5066 -5.31899,20.38553 -15.95698,26.63589c-10.47427,6.10847 -23.73082,9.16271 -39.76965,9.16271l0.00001,-0.00002z" fill="black"/>
    <path id="svg_21" d="m1290.78514,272.15381l20.37643,0l-39.76965,117.19701l-24.5494,0l-13.25655,-39.4213l-17.43043,-59.45029l-3.68182,0l-17.43043,59.45029l-13.50213,39.4213l-24.5494,0l-39.76965,-117.19701l20.37643,0l12.51982,36.86367l19.63971,62.00792l19.39322,-62.00792l12.52073,-36.86367l25.03965,0l12.52073,36.86367l19.39322,61.79508l19.63971,-61.79508l12.51982,-36.86367l-0.00001,0z" fill="black"/>
    <path id="svg_22" d="m1384.6579,269.80993c20.94853,0 37.64133,6.17942 50.0802,18.53825c12.43796,12.35883 18.24811,28.26942 17.42952,47.73086l-115.62623,0c0.98139,12.07506 5.97295,21.5934 14.97467,28.55411c9.00172,6.96071 20.37552,10.44061 34.12323,10.44061c20.13086,0 34.20509,-6.81882 42.2245,-20.45556l21.11316,0c-5.56457,12.07415 -13.99328,21.3078 -25.28613,27.70096c-11.29285,6.25036 -24.22197,9.37554 -38.78735,9.37554c-20.13086,0 -36.7427,-5.61095 -49.83554,-16.83377c-12.92912,-11.36471 -19.39413,-25.92554 -19.39413,-43.6825c0,-17.75696 6.46501,-32.38873 19.39413,-43.89533c12.92912,-11.64939 29.4591,-17.47318 49.58996,-17.47318l0.00001,0.00001zm0,16.62003c-12.11144,0 -22.42199,3.05424 -30.93256,9.16271c-8.34685,6.10847 -13.7477,14.06422 -16.20255,23.86634l92.55119,0c-2.29204,-9.94401 -7.44732,-17.89975 -15.46673,-23.86634c-8.01942,-6.10847 -18.00253,-9.16271 -29.94935,-9.16271z" fill="black"/>
    <path id="svg_23" d="m1536.92951,269.80993c20.94672,0 37.64588,6.17942 50.07929,18.53825c12.44251,12.35883 18.24538,28.26942 17.43589,47.73086l-115.62987,0c0.9823,12.07506 5.97568,21.5934 14.97103,28.55411c9.00445,6.96071 20.3828,10.44061 34.12596,10.44061c20.12813,0 34.20781,-6.81882 42.22086,-20.45556l21.11953,0c-5.56639,12.07415 -13.99783,21.3078 -25.28522,27.70096c-11.29649,6.25036 -24.23016,9.37554 -38.7919,9.37554c-20.12813,0 -36.74543,-5.61095 -49.83372,-16.83377c-12.93366,-11.36471 -19.3914,-25.92554 -19.3914,-43.6825c0,-17.75696 6.45774,-32.38873 19.3914,-43.89533c12.92457,-11.64939 29.46001,-17.47318 49.58814,-17.47318l0.00001,0.00001zm0,16.62003c-12.11508,0 -22.42017,3.05424 -30.93347,9.16271c-8.34049,6.10847 -13.74316,14.06422 -16.19891,23.86634l92.54573,0c-2.29204,-9.94401 -7.44004,-17.89975 -15.46219,-23.86634c-8.02215,-6.10847 -17.9998,-9.16271 -29.95117,-9.16271l0.00001,0z" fill="black"/>
    <path id="svg_24" d="m1699.26428,269.80993c18.33633,0 33.38923,5.75284 45.17687,17.25944c11.94227,11.36471 17.91795,25.92554 17.91795,43.6825c0,17.75787 -5.97568,32.38964 -17.91795,43.89624c-11.95136,11.36471 -27.08611,17.04661 -45.42245,17.04661c-11.45111,0 -21.68344,-2.27294 -30.6788,-6.81882c-8.84073,-4.68777 -15.88058,-11.08002 -21.11953,-19.17766l0,76.92438l-20.3737,0l0,-170.46879l20.3737,0l-0.24558,21.49062c5.23895,-8.23862 18.28176,-15.07381 21.61068,-16.80285c8.99535,-4.68777 19.22768,-7.03166 30.6788,-7.03166l0.00001,-0.00001zm-3.92012,105.05101c13.57944,0 24.71221,-4.11931 33.38013,-12.35883c8.67702,-8.23953 13.01552,-18.82294 13.01552,-31.75024c0,-12.7845 -4.33851,-23.29697 -13.01552,-31.53649c-8.66792,-8.38141 -19.80069,-12.57167 -33.38013,-12.57167c-13.91597,0 -25.45804,4.19025 -34.61711,12.57167c-9.16817,8.23953 -13.75225,18.75199 -13.75225,31.53649c0,12.78541 4.58408,23.36882 13.75225,31.75024c9.15907,8.23953 20.70114,12.35883 34.61711,12.35883z" fill="black"/>
    <path id="svg_25" d="m1054.55113,391.6947c-17.67601,0 -32.32325,-3.40896 -43.94353,-10.22778c-11.62029,-6.81882 -18.73926,-16.40811 -21.35783,-28.76694l20.86668,0c2.61857,7.95484 7.44641,13.63765 14.48443,17.04661c7.20083,3.40987 17.18395,5.11435 29.95026,5.11435c10.31055,0 18.6574,-1.49165 25.03965,-4.47494c6.54687,-3.12518 9.82031,-7.45823 9.82031,-12.99824c0,-3.40896 -1.63717,-6.25036 -4.91061,-8.5233c-3.27253,-2.41483 -6.79154,-4.11931 -10.55613,-5.11435c-3.76368,-0.99413 -10.22869,-2.48577 -19.39322,-4.47403c-2.12832,-0.42657 -3.76459,-0.7813 -4.91061,-1.06598c-20.29367,-4.40399 -34.28694,-8.73614 -41.97893,-12.99824c-7.69198,-4.2612 -11.53843,-10.93813 -11.53843,-20.0299c0,-11.08093 4.99247,-19.74612 14.97558,-25.99648c10.14683,-6.25036 23.40338,-9.37554 39.76965,-9.37554c15.7114,0 28.4768,2.98329 38.29711,8.94897c9.98312,5.8247 16.36627,14.06422 19.14764,24.71858l-20.6211,0c-4.9097,-11.22282 -17.02023,-16.83377 -36.3325,-16.83377c-10.63798,0 -19.0667,1.63353 -25.28613,4.9006c-6.21853,3.12518 -9.32825,7.2454 -9.32825,12.35883c0,4.40399 2.53671,7.67106 7.61012,9.80212c5.07342,1.98916 15.22025,4.68777 30.44141,8.09764c7.20083,1.56259 12.60168,2.76955 16.20164,3.62179c3.76459,0.85315 8.18313,2.06011 13.25655,3.6227c5.23804,1.56259 9.08358,3.05424 11.53843,4.47494c2.45485,1.4207 4.99156,3.26707 7.61012,5.54001c2.61857,2.13105 4.41946,4.61683 5.40085,7.45823c0.9823,2.69952 1.47346,5.8247 1.47346,9.37554c0,11.5066 -5.31899,20.38553 -15.95698,26.63589c-10.47427,6.10847 -23.73082,9.16271 -39.76965,9.16271l0.00001,-0.00002z" stroke="black" stroke-width="0.4" mask="url(#svg_8)"/>
    <path id="svg_26" d="m1290.78514,272.15381l20.37643,0l-39.76965,117.19701l-24.5494,0l-13.25655,-39.4213l-17.43043,-59.45029l-3.68182,0l-17.43043,59.45029l-13.50213,39.4213l-24.5494,0l-39.76965,-117.19701l20.37643,0l12.51982,36.86367l19.63971,62.00792l19.39322,-62.00792l12.52073,-36.86367l25.03965,0l12.52073,36.86367l19.39322,61.79508l19.63971,-61.79508l12.51982,-36.86367l-0.00001,0z" stroke="black" stroke-width="0.4" mask="url(#svg_8)"/>
    <path id="svg_27" d="m1384.6579,269.80993c20.94853,0 37.64133,6.17942 50.0802,18.53825c12.43796,12.35883 18.24811,28.26942 17.42952,47.73086l-115.62623,0c0.98139,12.07506 5.97295,21.5934 14.97467,28.55411c9.00172,6.96071 20.37552,10.44061 34.12323,10.44061c20.13086,0 34.20509,-6.81882 42.2245,-20.45556l21.11316,0c-5.56457,12.07415 -13.99328,21.3078 -25.28613,27.70096c-11.29285,6.25036 -24.22197,9.37554 -38.78735,9.37554c-20.13086,0 -36.7427,-5.61095 -49.83554,-16.83377c-12.92912,-11.36471 -19.39413,-25.92554 -19.39413,-43.6825c0,-17.75696 6.46501,-32.38873 19.39413,-43.89533c12.92912,-11.64939 29.4591,-17.47318 49.58996,-17.47318l0.00001,0.00001zm0,16.62003c-12.11144,0 -22.42199,3.05424 -30.93256,9.16271c-8.34685,6.10847 -13.7477,14.06422 -16.20255,23.86634l92.55119,0c-2.29204,-9.94401 -7.44732,-17.89975 -15.46673,-23.86634c-8.01942,-6.10847 -18.00253,-9.16271 -29.94935,-9.16271z" stroke="black" stroke-width="0.4" mask="url(#svg_8)"/>
    <path id="svg_28" d="m1536.92951,269.80993c20.94672,0 37.64588,6.17942 50.07929,18.53825c12.44251,12.35883 18.24538,28.26942 17.43589,47.73086l-115.62987,0c0.9823,12.07506 5.97568,21.5934 14.97103,28.55411c9.00445,6.96071 20.3828,10.44061 34.12596,10.44061c20.12813,0 34.20781,-6.81882 42.22086,-20.45556l21.11953,0c-5.56639,12.07415 -13.99783,21.3078 -25.28522,27.70096c-11.29649,6.25036 -24.23016,9.37554 -38.7919,9.37554c-20.12813,0 -36.74543,-5.61095 -49.83372,-16.83377c-12.93366,-11.36471 -19.3914,-25.92554 -19.3914,-43.6825c0,-17.75696 6.45774,-32.38873 19.3914,-43.89533c12.92457,-11.64939 29.46001,-17.47318 49.58814,-17.47318l0.00001,0.00001zm0,16.62003c-12.11508,0 -22.42017,3.05424 -30.93347,9.16271c-8.34049,6.10847 -13.74316,14.06422 -16.19891,23.86634l92.54573,0c-2.29204,-9.94401 -7.44004,-17.89975 -15.46219,-23.86634c-8.02215,-6.10847 -17.9998,-9.16271 -29.95117,-9.16271l0.00001,0z" stroke="black" stroke-width="0.4" mask="url(#svg_8)"/>
    <path id="svg_29" d="m1699.26428,269.80993c18.33633,0 33.38923,5.75284 45.17687,17.25944c11.94227,11.36471 17.91795,25.92554 17.91795,43.6825c0,17.75787 -5.97568,32.38964 -17.91795,43.89624c-11.95136,11.36471 -27.08611,17.04661 -45.42245,17.04661c-11.45111,0 -21.68344,-2.27294 -30.6788,-6.81882c-8.84073,-4.68777 -15.88058,-11.08002 -21.11953,-19.17766l0,76.92438l-20.3737,0l0,-170.46879l20.3737,0l-0.24558,21.49062c5.23895,-8.23862 18.28176,-15.07381 21.61068,-16.80285c8.99535,-4.68777 19.22768,-7.03166 30.6788,-7.03166l0.00001,-0.00001zm-3.92012,105.05101c13.57944,0 24.71221,-4.11931 33.38013,-12.35883c8.67702,-8.23953 13.01552,-18.82294 13.01552,-31.75024c0,-12.7845 -4.33851,-23.29697 -13.01552,-31.53649c-8.66792,-8.38141 -19.80069,-12.57167 -33.38013,-12.57167c-13.91597,0 -25.45804,4.19025 -34.61711,12.57167c-9.16817,8.23953 -13.75225,18.75199 -13.75225,31.53649c0,12.78541 4.58408,23.36882 13.75225,31.75024c9.15907,8.23953 20.70114,12.35883 34.61711,12.35883z" stroke="black" stroke-width="0.4" mask="url(#svg_8)"/>
    <path id="svg_30" d="m605.50385,391.81658l143.83736,-86.31174c6.83883,-4.10385 15.36214,-4.00925 22.11184,0.24285l137.01862,86.32994c14.00601,8.82618 13.2329,29.7356 -1.38796,37.47397l-136.98406,72.50037c-6.04935,3.20158 -13.24655,3.27344 -19.35684,0.19282l-143.87155,-72.51947c-15.12156,-7.62104 -15.89958,-29.18806 -1.3674,-37.90873l-0.00001,-0.00001z" fill="#F4793E" fill-opacity="0.5"/>
    <path id="svg_31" d="m586.38022,323.66836l143.8379,-86.31165c6.83792,-4.10348 15.36123,-4.00998 22.11093,0.24239l137.01862,86.3303c14.00692,8.82618 13.2329,29.7356 -1.38705,37.47397l-136.98406,72.50037c-6.05026,3.20158 -13.24746,3.27344 -19.35775,0.19282l-143.87119,-72.51766c-15.12156,-7.62286 -15.89958,-29.18988 -1.3674,-37.91055l0,0.00001z" fill="#F4793E" fill-opacity="0.7"/>
    <path id="svg_32" d="m605.50385,255.52014l143.83736,-86.31184c6.83883,-4.10348 15.36214,-4.01007 22.11184,0.24239l137.01862,86.33139c14.00601,8.82527 13.2329,29.7356 -1.38796,37.47306l-136.98406,72.49946c-6.04935,3.20249 -13.24655,3.27435 -19.35684,0.19464l-143.87155,-72.51947c-15.12156,-7.62195 -15.89958,-29.18897 -1.3674,-37.90964l-0.00001,0.00001z" fill="#FF8144"/>
   </g>
  </g>
  <g id="svg_33">
   <g id="svg_34">
    <title>Layer 1</title>
    <g id="svg_35">
     <mask fill="black" height="21" width="87" y="10.7949" x="47" maskUnits="userSpaceOnUse" id="svg_10">
      <rect id="svg_36" height="21" width="87" y="10.7949" x="47" fill="white"/>
      <path id="svg_37" d="m55.1796,25.1956c-1.9434,0 -3.5538,-0.3748 -4.8314,-1.1245c-1.2776,-0.7497 -2.0603,-1.804 -2.3482,-3.1628l2.2942,0c0.2879,0.8746 0.8187,1.4994 1.5925,1.8742c0.7917,0.3749 1.8893,0.5623 3.2929,0.5623c1.1336,0 2.0513,-0.164 2.753,-0.492c0.7198,-0.3436 1.0797,-0.82 1.0797,-1.4291c0,-0.3748 -0.18,-0.6872 -0.5399,-0.9371c-0.3598,-0.2655 -0.7467,-0.4529 -1.1606,-0.5623c-0.4138,-0.1093 -1.1246,-0.2733 -2.1322,-0.4919c-0.234,-0.0469 -0.4139,-0.0859 -0.5399,-0.1172c-2.2312,-0.4842 -3.7697,-0.9605 -4.6154,-1.4291c-0.8457,-0.4685 -1.2686,-1.2026 -1.2686,-2.2022c0,-1.2183 0.5489,-2.171 1.6465,-2.8582c1.1156,-0.6872 2.5731,-1.0308 4.3725,-1.0308c1.7274,0 3.1309,0.328 4.2106,0.9839c1.0976,0.6404 1.7994,1.5463 2.1052,2.7177l-2.2672,0c-0.5398,-1.2339 -1.8713,-1.8508 -3.9946,-1.8508c-1.1696,0 -2.0963,0.1796 -2.7801,0.5388c-0.6837,0.3436 -1.0256,0.7966 -1.0256,1.3588c0,0.4842 0.2789,0.8434 0.8367,1.0777c0.5578,0.2187 1.6734,0.5154 3.3469,0.8903c0.7917,0.1718 1.3855,0.3045 1.7813,0.3982c0.4139,0.0938 0.8997,0.2265 1.4575,0.3983c0.5759,0.1718 0.9987,0.3358 1.2686,0.492c0.2699,0.1562 0.5488,0.3592 0.8367,0.6091c0.2879,0.2343 0.4859,0.5076 0.5938,0.82c0.108,0.2968 0.162,0.6404 0.162,1.0308c0,1.2651 -0.5848,2.2413 -1.7544,2.9285c-1.1516,0.6716 -2.6091,1.0074 -4.3725,1.0074z"/>
      <path id="svg_38" d="m81.1525,12.0526l2.2403,0l-4.3725,12.8853l-2.6991,0l-1.4575,-4.3342l-1.9164,-6.5363l-0.4048,0l-1.9164,6.5363l-1.4845,4.3342l-2.6991,0l-4.3725,-12.8853l2.2403,0l1.3765,4.053l2.1593,6.8175l2.1322,-6.8175l1.3766,-4.053l2.753,0l1.3766,4.053l2.1322,6.7941l2.1593,-6.7941l1.3765,-4.053z"/>
      <path id="svg_39" d="m91.4734,11.7949c2.3032,0 4.1385,0.6794 5.5061,2.0382c1.3675,1.3588 2.0063,3.1081 1.9163,5.2478l-12.7126,0c0.1079,1.3276 0.6567,2.3741 1.6464,3.1394c0.9897,0.7653 2.2402,1.1479 3.7517,1.1479c2.2133,0 3.7607,-0.7497 4.6424,-2.249l2.3213,0c-0.6118,1.3275 -1.5385,2.3427 -2.7801,3.0456c-1.2416,0.6872 -2.6631,1.0308 -4.2645,1.0308c-2.2133,0 -4.0397,-0.6169 -5.4792,-1.8508c-1.4215,-1.2495 -2.1323,-2.8504 -2.1323,-4.8027c0,-1.9523 0.7108,-3.561 2.1323,-4.8261c1.4215,-1.2808 3.2389,-1.9211 5.4522,-1.9211zm0,1.8273c-1.3316,0 -2.4652,0.3358 -3.4009,1.0074c-0.9177,0.6716 -1.5115,1.5463 -1.7814,2.624l10.1756,0c-0.252,-1.0933 -0.8188,-1.968 -1.7005,-2.624c-0.8817,-0.6716 -1.9793,-1.0074 -3.2928,-1.0074z"/>
      <path id="svg_40" d="m108.215,11.7949c2.303,0 4.139,0.6794 5.506,2.0382c1.368,1.3588 2.006,3.1081 1.917,5.2478l-12.713,0c0.108,1.3276 0.657,2.3741 1.646,3.1394c0.99,0.7653 2.241,1.1479 3.752,1.1479c2.213,0 3.761,-0.7497 4.642,-2.249l2.322,0c-0.612,1.3275 -1.539,2.3427 -2.78,3.0456c-1.242,0.6872 -2.664,1.0308 -4.265,1.0308c-2.213,0 -4.04,-0.6169 -5.479,-1.8508c-1.422,-1.2495 -2.132,-2.8504 -2.132,-4.8027c0,-1.9523 0.71,-3.561 2.132,-4.8261c1.421,-1.2808 3.239,-1.9211 5.452,-1.9211zm0,1.8273c-1.332,0 -2.465,0.3358 -3.401,1.0074c-0.917,0.6716 -1.511,1.5463 -1.781,2.624l10.175,0c-0.252,-1.0933 -0.818,-1.968 -1.7,-2.624c-0.882,-0.6716 -1.979,-1.0074 -3.293,-1.0074z"/>
      <path id="svg_41" d="m126.063,11.7949c2.016,0 3.671,0.6325 4.967,1.8976c1.313,1.2495 1.97,2.8504 1.97,4.8027c0,1.9524 -0.657,3.5611 -1.97,4.8262c-1.314,1.2495 -2.978,1.8742 -4.994,1.8742c-1.259,0 -2.384,-0.2499 -3.373,-0.7497c-0.972,-0.5154 -1.746,-1.2182 -2.322,-2.1085l0,8.4575l-2.24,0l0,-18.7423l2.24,0l-0.027,2.3628c0.576,-0.9058 2.01,-1.6573 2.376,-1.8474c0.989,-0.5154 2.114,-0.7731 3.373,-0.7731zm-0.431,11.5499c1.493,0 2.717,-0.4529 3.67,-1.3588c0.954,-0.9059 1.431,-2.0695 1.431,-3.4908c0,-1.4056 -0.477,-2.5614 -1.431,-3.4673c-0.953,-0.9215 -2.177,-1.3822 -3.67,-1.3822c-1.53,0 -2.799,0.4607 -3.806,1.3822c-1.008,0.9059 -1.512,2.0617 -1.512,3.4673c0,1.4057 0.504,2.5693 1.512,3.4908c1.007,0.9059 2.276,1.3588 3.806,1.3588z"/>
     </mask>
     <g id="svg_42">
      <mask fill="black" height="21" width="87" y="10.7949" x="47" maskUnits="userSpaceOnUse" id="svg_9">
       <rect id="svg_43" height="21" width="87" y="10.7949" x="47" fill="white"/>
       <path id="svg_44" d="m55.1796,25.1956c-1.9434,0 -3.5538,-0.3748 -4.8314,-1.1245c-1.2776,-0.7497 -2.0603,-1.804 -2.3482,-3.1628l2.2942,0c0.2879,0.8746 0.8187,1.4994 1.5925,1.8742c0.7917,0.3749 1.8893,0.5623 3.2929,0.5623c1.1336,0 2.0513,-0.164 2.753,-0.492c0.7198,-0.3436 1.0797,-0.82 1.0797,-1.4291c0,-0.3748 -0.18,-0.6872 -0.5399,-0.9371c-0.3598,-0.2655 -0.7467,-0.4529 -1.1606,-0.5623c-0.4138,-0.1093 -1.1246,-0.2733 -2.1322,-0.4919c-0.234,-0.0469 -0.4139,-0.0859 -0.5399,-0.1172c-2.2312,-0.4842 -3.7697,-0.9605 -4.6154,-1.4291c-0.8457,-0.4685 -1.2686,-1.2026 -1.2686,-2.2022c0,-1.2183 0.5489,-2.171 1.6465,-2.8582c1.1156,-0.6872 2.5731,-1.0308 4.3725,-1.0308c1.7274,0 3.1309,0.328 4.2106,0.9839c1.0976,0.6404 1.7994,1.5463 2.1052,2.7177l-2.2672,0c-0.5398,-1.2339 -1.8713,-1.8508 -3.9946,-1.8508c-1.1696,0 -2.0963,0.1796 -2.7801,0.5388c-0.6837,0.3436 -1.0256,0.7966 -1.0256,1.3588c0,0.4842 0.2789,0.8434 0.8367,1.0777c0.5578,0.2187 1.6734,0.5154 3.3469,0.8903c0.7917,0.1718 1.3855,0.3045 1.7813,0.3982c0.4139,0.0938 0.8997,0.2265 1.4575,0.3983c0.5759,0.1718 0.9987,0.3358 1.2686,0.492c0.2699,0.1562 0.5488,0.3592 0.8367,0.6091c0.2879,0.2343 0.4859,0.5076 0.5938,0.82c0.108,0.2968 0.162,0.6404 0.162,1.0308c0,1.2651 -0.5848,2.2413 -1.7544,2.9285c-1.1516,0.6716 -2.6091,1.0074 -4.3725,1.0074z"/>
       <path id="svg_45" d="m81.1525,12.0526l2.2403,0l-4.3725,12.8853l-2.6991,0l-1.4575,-4.3342l-1.9164,-6.5363l-0.4048,0l-1.9164,6.5363l-1.4845,4.3342l-2.6991,0l-4.3725,-12.8853l2.2403,0l1.3765,4.053l2.1593,6.8175l2.1322,-6.8175l1.3766,-4.053l2.753,0l1.3766,4.053l2.1322,6.7941l2.1593,-6.7941l1.3765,-4.053z"/>
       <path id="svg_46" d="m91.4734,11.7949c2.3032,0 4.1385,0.6794 5.5061,2.0382c1.3675,1.3588 2.0063,3.1081 1.9163,5.2478l-12.7126,0c0.1079,1.3276 0.6567,2.3741 1.6464,3.1394c0.9897,0.7653 2.2402,1.1479 3.7517,1.1479c2.2133,0 3.7607,-0.7497 4.6424,-2.249l2.3213,0c-0.6118,1.3275 -1.5385,2.3427 -2.7801,3.0456c-1.2416,0.6872 -2.6631,1.0308 -4.2645,1.0308c-2.2133,0 -4.0397,-0.6169 -5.4792,-1.8508c-1.4215,-1.2495 -2.1323,-2.8504 -2.1323,-4.8027c0,-1.9523 0.7108,-3.561 2.1323,-4.8261c1.4215,-1.2808 3.2389,-1.9211 5.4522,-1.9211zm0,1.8273c-1.3316,0 -2.4652,0.3358 -3.4009,1.0074c-0.9177,0.6716 -1.5115,1.5463 -1.7814,2.624l10.1756,0c-0.252,-1.0933 -0.8188,-1.968 -1.7005,-2.624c-0.8817,-0.6716 -1.9793,-1.0074 -3.2928,-1.0074z"/>
       <path id="svg_47" d="m108.215,11.7949c2.303,0 4.139,0.6794 5.506,2.0382c1.368,1.3588 2.006,3.1081 1.917,5.2478l-12.713,0c0.108,1.3276 0.657,2.3741 1.646,3.1394c0.99,0.7653 2.241,1.1479 3.752,1.1479c2.213,0 3.761,-0.7497 4.642,-2.249l2.322,0c-0.612,1.3275 -1.539,2.3427 -2.78,3.0456c-1.242,0.6872 -2.664,1.0308 -4.265,1.0308c-2.213,0 -4.04,-0.6169 -5.479,-1.8508c-1.422,-1.2495 -2.132,-2.8504 -2.132,-4.8027c0,-1.9523 0.71,-3.561 2.132,-4.8261c1.421,-1.2808 3.239,-1.9211 5.452,-1.9211zm0,1.8273c-1.332,0 -2.465,0.3358 -3.401,1.0074c-0.917,0.6716 -1.511,1.5463 -1.781,2.624l10.175,0c-0.252,-1.0933 -0.818,-1.968 -1.7,-2.624c-0.882,-0.6716 -1.979,-1.0074 -3.293,-1.0074z"/>
       <path id="svg_48" d="m126.063,11.7949c2.016,0 3.671,0.6325 4.967,1.8976c1.313,1.2495 1.97,2.8504 1.97,4.8027c0,1.9524 -0.657,3.5611 -1.97,4.8262c-1.314,1.2495 -2.978,1.8742 -4.994,1.8742c-1.259,0 -2.384,-0.2499 -3.373,-0.7497c-0.972,-0.5154 -1.746,-1.2182 -2.322,-2.1085l0,8.4575l-2.24,0l0,-18.7423l2.24,0l-0.027,2.3628c0.576,-0.9058 2.01,-1.6573 2.376,-1.8474c0.989,-0.5154 2.114,-0.7731 3.373,-0.7731zm-0.431,11.5499c1.493,0 2.717,-0.4529 3.67,-1.3588c0.954,-0.9059 1.431,-2.0695 1.431,-3.4908c0,-1.4056 -0.477,-2.5614 -1.431,-3.4673c-0.953,-0.9215 -2.177,-1.3822 -3.67,-1.3822c-1.53,0 -2.799,0.4607 -3.806,1.3822c-1.008,0.9059 -1.512,2.0617 -1.512,3.4673c0,1.4057 0.504,2.5693 1.512,3.4908c1.007,0.9059 2.276,1.3588 3.806,1.3588z"/>
      </mask>
      <path id="svg_49" fill="black" d="m227.1231,108.05896c-8.36305,0 -15.29309,-1.61288 -20.791,-4.83907c-5.4979,-3.22619 -8.86611,-7.76317 -10.10502,-13.6105l9.87265,0c1.23892,3.76367 3.52312,6.45238 6.85301,8.06526c3.40692,1.61331 8.13023,2.41975 14.17036,2.41975c4.87823,0 8.82738,-0.70574 11.847,-2.11723c3.09752,-1.47862 4.64628,-3.52872 4.64628,-6.14985c0,-1.61288 -0.77459,-2.95723 -2.32335,-4.03263c-1.54832,-1.14253 -3.21328,-1.94897 -4.99442,-2.41975c-1.7807,-0.47035 -4.8395,-1.17609 -9.17551,-2.1168c-1.00697,-0.20183 -1.78114,-0.36965 -2.32335,-0.50435c-9.60154,-2.08366 -16.22218,-4.13333 -19.86148,-6.14985c-3.6393,-2.0161 -5.45917,-5.17516 -5.45917,-9.47674c0,-5.24272 2.36208,-9.34249 7.08539,-12.29971c4.80077,-2.95723 11.07284,-4.43585 18.81621,-4.43585c7.43354,0 13.47322,1.41149 18.1195,4.23402c4.72331,2.75584 7.74337,6.65421 9.05932,11.6951l-9.75645,0c-2.32293,-5.30985 -8.05278,-7.96457 -17.18999,-7.96457c-5.03314,0 -9.02102,0.77288 -11.96363,2.31863c-2.94217,1.47862 -4.41348,3.42802 -4.41348,5.84733c0,2.08366 1.20019,3.62941 3.60057,4.63768c2.40038,0.94114 7.20116,2.21793 14.40274,3.83123c3.40692,0.73931 5.96223,1.31036 7.66548,1.71357c1.78114,0.40365 3.87168,0.97469 6.27207,1.714c2.47828,0.73931 4.29771,1.44505 5.45917,2.11723c1.16146,0.67218 2.36165,1.54575 3.60057,2.62114c1.23892,1.00826 2.09098,2.18436 2.55531,3.52872c0.46476,1.27722 0.69713,2.75584 0.69713,4.43585c0,5.44411 -2.51658,9.645 -7.54972,12.60223c-4.95569,2.8901 -11.22776,4.33515 -18.81621,4.33515l0,0z"/>
      <path id="svg_50" fill="black" d="m338.89246,51.50059l9.6407,0l-18.81621,55.44941l-11.61505,0l-6.27207,-18.65139l-8.24686,-28.12771l-1.74198,0l-8.24686,28.12771l-6.38826,18.65139l-11.61505,0l-18.81621,-55.44941l9.6407,0l5.9235,17.4413l9.29214,29.3378l9.17551,-29.3378l5.92393,-17.4413l11.847,0l5.92393,17.4413l9.17551,29.2371l9.29214,-29.2371l5.9235,-17.4413l0.00001,0l-0.00001,0z"/>
      <path id="svg_51" fill="black" d="m383.30647,50.39163c9.91138,0 17.80924,2.92366 23.69444,8.771c5.88477,5.84733 8.63373,13.37511 8.24643,22.5829l-54.70623,0c0.46433,5.71307 2.82598,10.21648 7.08496,13.5098c4.25898,3.29332 9.64027,4.93976 16.14472,4.93976c9.52451,0 16.18345,-3.22619 19.97767,-9.67814l9.98927,0c-2.63276,5.71264 -6.62064,10.08135 -11.96363,13.10616c-5.34299,2.95723 -11.46014,4.43585 -18.35145,4.43585c-9.52451,0 -17.38407,-2.65471 -23.57869,-7.96457c-6.11715,-5.37698 -9.17594,-12.26615 -9.17594,-20.66749c0,-8.40135 3.05879,-15.32407 9.17594,-20.76819c6.11715,-5.51167 13.93798,-8.26708 23.46249,-8.26708l0,0l0.00002,0.00001zm0,7.86343c-5.73029,0 -10.60851,1.44505 -14.63511,4.33515c-3.94915,2.8901 -6.50445,6.65421 -7.66591,11.29187l43.78874,0c-1.08443,-4.70481 -3.52355,-8.46891 -7.31777,-11.29187c-3.79423,-2.8901 -8.51753,-4.33515 -14.16993,-4.33515l0,0l-0.00001,0z"/>
      <path id="svg_52" fill="black" d="m455.35071,50.39163c9.91052,0 17.81139,2.92366 23.69401,8.771c5.88693,5.84733 8.63243,13.37511 8.24943,22.5829l-54.70795,0c0.46476,5.71307 2.82728,10.21648 7.08324,13.5098c4.26028,3.29332 9.64371,4.93976 16.146,4.93976c9.52322,0 16.18473,-3.22619 19.97595,-9.67814l9.99228,0c-2.63363,5.71264 -6.62279,10.08135 -11.9632,13.10616c-5.34471,2.95723 -11.46401,4.43585 -18.3536,4.43585c-9.52322,0 -17.38536,-2.65471 -23.57782,-7.96457c-6.1193,-5.37698 -9.17466,-12.26615 -9.17466,-20.66749c0,-8.40135 3.05534,-15.32407 9.17466,-20.76819c6.115,-5.51167 13.93842,-8.26708 23.46162,-8.26708l0,0l0.00002,0.00001zm0,7.86343c-5.732,0 -10.60765,1.44505 -14.63555,4.33515c-3.94613,2.8901 -6.5023,6.65421 -7.66419,11.29187l43.78615,0c-1.08443,-4.70481 -3.5201,-8.46891 -7.31562,-11.29187c-3.79552,-2.8901 -8.51625,-4.33515 -14.17078,-4.33515l0,0l-0.00001,0z"/>
      <path id="svg_53" fill="black" d="m532.15614,50.39163c8.67546,0 15.79744,2.72184 21.37452,8.16595c5.65024,5.37698 8.47751,12.26615 8.47751,20.66749c0,8.40178 -2.82728,15.32451 -8.47751,20.76863c-5.65455,5.37698 -12.81525,8.06526 -21.49072,8.06526c-5.41787,0 -10.25908,-1.07539 -14.51506,-3.22619c-4.18282,-2.21793 -7.51357,-5.24229 -9.99228,-9.07352l0,36.39523l-9.6394,0l0,-80.65388l9.6394,0l-0.11618,10.16785c2.4787,-3.89793 8.64965,-7.13187 10.22465,-7.94993c4.25597,-2.21793 9.09719,-3.32689 14.51506,-3.32689l0,0l0.00001,0zm-1.85473,49.70277c6.42483,0 11.69209,-1.94897 15.79314,-5.84733c4.10535,-3.89837 6.15803,-8.90569 6.15803,-15.02198c0,-6.04873 -2.05268,-11.02249 -6.15803,-14.92086c-4.10105,-3.9655 -9.3683,-5.94803 -15.79314,-5.94803c-6.58406,0 -12.04495,1.98253 -16.37838,5.94803c-4.33773,3.89837 -6.5066,8.87213 -6.5066,14.92086c0,6.04916 2.16887,11.05649 6.5066,15.02198c4.33343,3.89837 9.79432,5.84733 16.37838,5.84733z"/>
      <path id="svg_54" mask="url(#svg_9)" stroke-width="0.4" stroke="black" d="m227.1231,108.05896c-8.36305,0 -15.29309,-1.61288 -20.791,-4.83907c-5.4979,-3.22619 -8.86611,-7.76317 -10.10502,-13.6105l9.87265,0c1.23892,3.76367 3.52312,6.45238 6.85301,8.06526c3.40692,1.61331 8.13023,2.41975 14.17036,2.41975c4.87823,0 8.82738,-0.70574 11.847,-2.11723c3.09752,-1.47862 4.64628,-3.52872 4.64628,-6.14985c0,-1.61288 -0.77459,-2.95723 -2.32335,-4.03263c-1.54832,-1.14253 -3.21328,-1.94897 -4.99442,-2.41975c-1.7807,-0.47035 -4.8395,-1.17609 -9.17551,-2.1168c-1.00697,-0.20183 -1.78114,-0.36965 -2.32335,-0.50435c-9.60154,-2.08366 -16.22218,-4.13333 -19.86148,-6.14985c-3.6393,-2.0161 -5.45917,-5.17516 -5.45917,-9.47674c0,-5.24272 2.36208,-9.34249 7.08539,-12.29971c4.80077,-2.95723 11.07284,-4.43585 18.81621,-4.43585c7.43354,0 13.47322,1.41149 18.1195,4.23402c4.72331,2.75584 7.74337,6.65421 9.05932,11.6951l-9.75645,0c-2.32293,-5.30985 -8.05278,-7.96457 -17.18999,-7.96457c-5.03314,0 -9.02102,0.77288 -11.96363,2.31863c-2.94217,1.47862 -4.41348,3.42802 -4.41348,5.84733c0,2.08366 1.20019,3.62941 3.60057,4.63768c2.40038,0.94114 7.20116,2.21793 14.40274,3.83123c3.40692,0.73931 5.96223,1.31036 7.66548,1.71357c1.78114,0.40365 3.87168,0.97469 6.27207,1.714c2.47828,0.73931 4.29771,1.44505 5.45917,2.11723c1.16146,0.67218 2.36165,1.54575 3.60057,2.62114c1.23892,1.00826 2.09098,2.18436 2.55531,3.52872c0.46476,1.27722 0.69713,2.75584 0.69713,4.43585c0,5.44411 -2.51658,9.645 -7.54972,12.60223c-4.95569,2.8901 -11.22776,4.33515 -18.81621,4.33515l0,0z"/>
      <path id="svg_55" mask="url(#svg_9)" stroke-width="0.4" stroke="black" d="m338.89246,51.50059l9.6407,0l-18.81621,55.44941l-11.61505,0l-6.27207,-18.65139l-8.24686,-28.12771l-1.74198,0l-8.24686,28.12771l-6.38826,18.65139l-11.61505,0l-18.81621,-55.44941l9.6407,0l5.9235,17.4413l9.29214,29.3378l9.17551,-29.3378l5.92393,-17.4413l11.847,0l5.92393,17.4413l9.17551,29.2371l9.29214,-29.2371l5.9235,-17.4413l0.00001,0l-0.00001,0z"/>
      <path id="svg_56" mask="url(#svg_9)" stroke-width="0.4" stroke="black" d="m383.30647,50.39163c9.91138,0 17.80924,2.92366 23.69444,8.771c5.88477,5.84733 8.63373,13.37511 8.24643,22.5829l-54.70623,0c0.46433,5.71307 2.82598,10.21648 7.08496,13.5098c4.25898,3.29332 9.64027,4.93976 16.14472,4.93976c9.52451,0 16.18345,-3.22619 19.97767,-9.67814l9.98927,0c-2.63276,5.71264 -6.62064,10.08135 -11.96363,13.10616c-5.34299,2.95723 -11.46014,4.43585 -18.35145,4.43585c-9.52451,0 -17.38407,-2.65471 -23.57869,-7.96457c-6.11715,-5.37698 -9.17594,-12.26615 -9.17594,-20.66749c0,-8.40135 3.05879,-15.32407 9.17594,-20.76819c6.11715,-5.51167 13.93798,-8.26708 23.46249,-8.26708l0,0l0.00002,0.00001zm0,7.86343c-5.73029,0 -10.60851,1.44505 -14.63511,4.33515c-3.94915,2.8901 -6.50445,6.65421 -7.66591,11.29187l43.78874,0c-1.08443,-4.70481 -3.52355,-8.46891 -7.31777,-11.29187c-3.79423,-2.8901 -8.51753,-4.33515 -14.16993,-4.33515l0,0l-0.00001,0z"/>
      <path id="svg_57" mask="url(#svg_9)" stroke-width="0.4" stroke="black" d="m455.35071,50.39163c9.91052,0 17.81139,2.92366 23.69401,8.771c5.88693,5.84733 8.63243,13.37511 8.24943,22.5829l-54.70795,0c0.46476,5.71307 2.82728,10.21648 7.08324,13.5098c4.26028,3.29332 9.64371,4.93976 16.146,4.93976c9.52322,0 16.18473,-3.22619 19.97595,-9.67814l9.99228,0c-2.63363,5.71264 -6.62279,10.08135 -11.9632,13.10616c-5.34471,2.95723 -11.46401,4.43585 -18.3536,4.43585c-9.52322,0 -17.38536,-2.65471 -23.57782,-7.96457c-6.1193,-5.37698 -9.17466,-12.26615 -9.17466,-20.66749c0,-8.40135 3.05534,-15.32407 9.17466,-20.76819c6.115,-5.51167 13.93842,-8.26708 23.46162,-8.26708l0,0l0.00002,0.00001zm0,7.86343c-5.732,0 -10.60765,1.44505 -14.63555,4.33515c-3.94613,2.8901 -6.5023,6.65421 -7.66419,11.29187l43.78615,0c-1.08443,-4.70481 -3.5201,-8.46891 -7.31562,-11.29187c-3.79552,-2.8901 -8.51625,-4.33515 -14.17078,-4.33515l0,0l-0.00001,0z"/>
      <path id="svg_58" mask="url(#svg_9)" stroke-width="0.4" stroke="black" d="m532.15614,50.39163c8.67546,0 15.79744,2.72184 21.37452,8.16595c5.65024,5.37698 8.47751,12.26615 8.47751,20.66749c0,8.40178 -2.82728,15.32451 -8.47751,20.76863c-5.65455,5.37698 -12.81525,8.06526 -21.49072,8.06526c-5.41787,0 -10.25908,-1.07539 -14.51506,-3.22619c-4.18282,-2.21793 -7.51357,-5.24229 -9.99228,-9.07352l0,36.39523l-9.6394,0l0,-80.65388l9.6394,0l-0.11618,10.16785c2.4787,-3.89793 8.64965,-7.13187 10.22465,-7.94993c4.25597,-2.21793 9.09719,-3.32689 14.51506,-3.32689l0,0l0.00001,0zm-1.85473,49.70277c6.42483,0 11.69209,-1.94897 15.79314,-5.84733c4.10535,-3.89837 6.15803,-8.90569 6.15803,-15.02198c0,-6.04873 -2.05268,-11.02249 -6.15803,-14.92086c-4.10105,-3.9655 -9.3683,-5.94803 -15.79314,-5.94803c-6.58406,0 -12.04495,1.98253 -16.37838,5.94803c-4.33773,3.89837 -6.5066,8.87213 -6.5066,14.92086c0,6.04916 2.16887,11.05649 6.5066,15.02198c4.33343,3.89837 9.79432,5.84733 16.37838,5.84733z"/>
      <path id="svg_59" fill-opacity="0.5" fill="#F4793E" d="m14.66542,108.11663l68.05375,-40.83666c3.23566,-1.94165 7.26829,-1.8969 10.46177,0.1149l64.82761,40.84528c6.62666,4.17593 6.26088,14.0688 -0.65668,17.73005l-64.81125,34.30208c-2.86213,1.51476 -6.26733,1.54877 -9.1583,0.09123l-68.06993,-34.31113c-7.15446,-3.60574 -7.52257,-13.80974 -0.64696,-17.93575l0,0z"/>
      <path id="svg_60" fill-opacity="0.7" fill="#F4793E" d="m5.61746,75.87366l68.054,-40.83662c3.23522,-1.94148 7.26786,-1.89724 10.46134,0.11468l64.82761,40.84545c6.62709,4.17593 6.26088,14.0688 -0.65626,17.73005l-64.81125,34.30208c-2.86256,1.51476 -6.26777,1.54877 -9.15873,0.09123l-68.06976,-34.31027c-7.15446,-3.6066 -7.52257,-13.8106 -0.64696,-17.93662l0,0z"/>
      <path id="svg_61" fill="#FF8144" d="m14.66542,43.6307l68.05375,-40.83671c3.23566,-1.94148 7.26829,-1.89729 10.46177,0.11468l64.82761,40.84596c6.62666,4.1755 6.26088,14.0688 -0.65668,17.72963l-64.81125,34.30166c-2.86213,1.5152 -6.26733,1.54919 -9.1583,0.0921l-68.06993,-34.31113c-7.15446,-3.60617 -7.52257,-13.81017 -0.64696,-17.93618l0,-0.00001z"/>
     </g>
    </g>
   </g>
  </g>
 </g>

</svg>