<svg width="512" height="512" xmlns="http://www.w3.org/2000/svg">

 <g>
  <title>Layer 1</title>
  <g>
   <mask fill="black" height="21" width="87" y="10.7949" x="47" maskUnits="userSpaceOnUse" id="svg_1">
    <rect height="21" width="87" y="10.7949" x="47" fill="white"/>
    <path d="m55.1796,25.1956c-1.9434,0 -3.5538,-0.3748 -4.8314,-1.1245c-1.2776,-0.7497 -2.0603,-1.804 -2.3482,-3.1628l2.2942,0c0.2879,0.8746 0.8187,1.4994 1.5925,1.8742c0.7917,0.3749 1.8893,0.5623 3.2929,0.5623c1.1336,0 2.0513,-0.164 2.753,-0.492c0.7198,-0.3436 1.0797,-0.82 1.0797,-1.4291c0,-0.3748 -0.18,-0.6872 -0.5399,-0.9371c-0.3598,-0.2655 -0.7467,-0.4529 -1.1606,-0.5623c-0.4138,-0.1093 -1.1246,-0.2733 -2.1322,-0.4919c-0.234,-0.0469 -0.4139,-0.0859 -0.5399,-0.1172c-2.2312,-0.4842 -3.7697,-0.9605 -4.6154,-1.4291c-0.8457,-0.4685 -1.2686,-1.2026 -1.2686,-2.2022c0,-1.2183 0.5489,-2.171 1.6465,-2.8582c1.1156,-0.6872 2.5731,-1.0308 4.3725,-1.0308c1.7274,0 3.1309,0.328 4.2106,0.9839c1.0976,0.6404 1.7994,1.5463 2.1052,2.7177l-2.2672,0c-0.5398,-1.2339 -1.8713,-1.8508 -3.9946,-1.8508c-1.1696,0 -2.0963,0.1796 -2.7801,0.5388c-0.6837,0.3436 -1.0256,0.7966 -1.0256,1.3588c0,0.4842 0.2789,0.8434 0.8367,1.0777c0.5578,0.2187 1.6734,0.5154 3.3469,0.8903c0.7917,0.1718 1.3855,0.3045 1.7813,0.3982c0.4139,0.0938 0.8997,0.2265 1.4575,0.3983c0.5759,0.1718 0.9987,0.3358 1.2686,0.492c0.2699,0.1562 0.5488,0.3592 0.8367,0.6091c0.2879,0.2343 0.4859,0.5076 0.5938,0.82c0.108,0.2968 0.162,0.6404 0.162,1.0308c0,1.2651 -0.5848,2.2413 -1.7544,2.9285c-1.1516,0.6716 -2.6091,1.0074 -4.3725,1.0074z"/>
    <path d="m81.1525,12.0526l2.2403,0l-4.3725,12.8853l-2.6991,0l-1.4575,-4.3342l-1.9164,-6.5363l-0.4048,0l-1.9164,6.5363l-1.4845,4.3342l-2.6991,0l-4.3725,-12.8853l2.2403,0l1.3765,4.053l2.1593,6.8175l2.1322,-6.8175l1.3766,-4.053l2.753,0l1.3766,4.053l2.1322,6.7941l2.1593,-6.7941l1.3765,-4.053z"/>
    <path d="m91.4734,11.7949c2.3032,0 4.1385,0.6794 5.5061,2.0382c1.3675,1.3588 2.0063,3.1081 1.9163,5.2478l-12.7126,0c0.1079,1.3276 0.6567,2.3741 1.6464,3.1394c0.9897,0.7653 2.2402,1.1479 3.7517,1.1479c2.2133,0 3.7607,-0.7497 4.6424,-2.249l2.3213,0c-0.6118,1.3275 -1.5385,2.3427 -2.7801,3.0456c-1.2416,0.6872 -2.6631,1.0308 -4.2645,1.0308c-2.2133,0 -4.0397,-0.6169 -5.4792,-1.8508c-1.4215,-1.2495 -2.1323,-2.8504 -2.1323,-4.8027c0,-1.9523 0.7108,-3.561 2.1323,-4.8261c1.4215,-1.2808 3.2389,-1.9211 5.4522,-1.9211zm0,1.8273c-1.3316,0 -2.4652,0.3358 -3.4009,1.0074c-0.9177,0.6716 -1.5115,1.5463 -1.7814,2.624l10.1756,0c-0.252,-1.0933 -0.8188,-1.968 -1.7005,-2.624c-0.8817,-0.6716 -1.9793,-1.0074 -3.2928,-1.0074z"/>
    <path d="m108.215,11.7949c2.303,0 4.139,0.6794 5.506,2.0382c1.368,1.3588 2.006,3.1081 1.917,5.2478l-12.713,0c0.108,1.3276 0.657,2.3741 1.646,3.1394c0.99,0.7653 2.241,1.1479 3.752,1.1479c2.213,0 3.761,-0.7497 4.642,-2.249l2.322,0c-0.612,1.3275 -1.539,2.3427 -2.78,3.0456c-1.242,0.6872 -2.664,1.0308 -4.265,1.0308c-2.213,0 -4.04,-0.6169 -5.479,-1.8508c-1.422,-1.2495 -2.132,-2.8504 -2.132,-4.8027c0,-1.9523 0.71,-3.561 2.132,-4.8261c1.421,-1.2808 3.239,-1.9211 5.452,-1.9211zm0,1.8273c-1.332,0 -2.465,0.3358 -3.401,1.0074c-0.917,0.6716 -1.511,1.5463 -1.781,2.624l10.175,0c-0.252,-1.0933 -0.818,-1.968 -1.7,-2.624c-0.882,-0.6716 -1.979,-1.0074 -3.293,-1.0074z"/>
    <path d="m126.063,11.7949c2.016,0 3.671,0.6325 4.967,1.8976c1.313,1.2495 1.97,2.8504 1.97,4.8027c0,1.9524 -0.657,3.5611 -1.97,4.8262c-1.314,1.2495 -2.978,1.8742 -4.994,1.8742c-1.259,0 -2.384,-0.2499 -3.373,-0.7497c-0.972,-0.5154 -1.746,-1.2182 -2.322,-2.1085l0,8.4575l-2.24,0l0,-18.7423l2.24,0l-0.027,2.3628c0.576,-0.9058 2.01,-1.6573 2.376,-1.8474c0.989,-0.5154 2.114,-0.7731 3.373,-0.7731zm-0.431,11.5499c1.493,0 2.717,-0.4529 3.67,-1.3588c0.954,-0.9059 1.431,-2.0695 1.431,-3.4908c0,-1.4056 -0.477,-2.5614 -1.431,-3.4673c-0.953,-0.9215 -2.177,-1.3822 -3.67,-1.3822c-1.53,0 -2.799,0.4607 -3.806,1.3822c-1.008,0.9059 -1.512,2.0617 -1.512,3.4673c0,1.4057 0.504,2.5693 1.512,3.4908c1.007,0.9059 2.276,1.3588 3.806,1.3588z"/>
   </mask>
   <g>
    <mask fill="black" height="21" width="87" y="10.7949" x="47" maskUnits="userSpaceOnUse" id="svg_8">
     <rect height="21" width="87" y="10.7949" x="47" fill="white"/>
     <path d="m55.1796,25.1956c-1.9434,0 -3.5538,-0.3748 -4.8314,-1.1245c-1.2776,-0.7497 -2.0603,-1.804 -2.3482,-3.1628l2.2942,0c0.2879,0.8746 0.8187,1.4994 1.5925,1.8742c0.7917,0.3749 1.8893,0.5623 3.2929,0.5623c1.1336,0 2.0513,-0.164 2.753,-0.492c0.7198,-0.3436 1.0797,-0.82 1.0797,-1.4291c0,-0.3748 -0.18,-0.6872 -0.5399,-0.9371c-0.3598,-0.2655 -0.7467,-0.4529 -1.1606,-0.5623c-0.4138,-0.1093 -1.1246,-0.2733 -2.1322,-0.4919c-0.234,-0.0469 -0.4139,-0.0859 -0.5399,-0.1172c-2.2312,-0.4842 -3.7697,-0.9605 -4.6154,-1.4291c-0.8457,-0.4685 -1.2686,-1.2026 -1.2686,-2.2022c0,-1.2183 0.5489,-2.171 1.6465,-2.8582c1.1156,-0.6872 2.5731,-1.0308 4.3725,-1.0308c1.7274,0 3.1309,0.328 4.2106,0.9839c1.0976,0.6404 1.7994,1.5463 2.1052,2.7177l-2.2672,0c-0.5398,-1.2339 -1.8713,-1.8508 -3.9946,-1.8508c-1.1696,0 -2.0963,0.1796 -2.7801,0.5388c-0.6837,0.3436 -1.0256,0.7966 -1.0256,1.3588c0,0.4842 0.2789,0.8434 0.8367,1.0777c0.5578,0.2187 1.6734,0.5154 3.3469,0.8903c0.7917,0.1718 1.3855,0.3045 1.7813,0.3982c0.4139,0.0938 0.8997,0.2265 1.4575,0.3983c0.5759,0.1718 0.9987,0.3358 1.2686,0.492c0.2699,0.1562 0.5488,0.3592 0.8367,0.6091c0.2879,0.2343 0.4859,0.5076 0.5938,0.82c0.108,0.2968 0.162,0.6404 0.162,1.0308c0,1.2651 -0.5848,2.2413 -1.7544,2.9285c-1.1516,0.6716 -2.6091,1.0074 -4.3725,1.0074z"/>
     <path d="m81.1525,12.0526l2.2403,0l-4.3725,12.8853l-2.6991,0l-1.4575,-4.3342l-1.9164,-6.5363l-0.4048,0l-1.9164,6.5363l-1.4845,4.3342l-2.6991,0l-4.3725,-12.8853l2.2403,0l1.3765,4.053l2.1593,6.8175l2.1322,-6.8175l1.3766,-4.053l2.753,0l1.3766,4.053l2.1322,6.7941l2.1593,-6.7941l1.3765,-4.053z"/>
     <path d="m91.4734,11.7949c2.3032,0 4.1385,0.6794 5.5061,2.0382c1.3675,1.3588 2.0063,3.1081 1.9163,5.2478l-12.7126,0c0.1079,1.3276 0.6567,2.3741 1.6464,3.1394c0.9897,0.7653 2.2402,1.1479 3.7517,1.1479c2.2133,0 3.7607,-0.7497 4.6424,-2.249l2.3213,0c-0.6118,1.3275 -1.5385,2.3427 -2.7801,3.0456c-1.2416,0.6872 -2.6631,1.0308 -4.2645,1.0308c-2.2133,0 -4.0397,-0.6169 -5.4792,-1.8508c-1.4215,-1.2495 -2.1323,-2.8504 -2.1323,-4.8027c0,-1.9523 0.7108,-3.561 2.1323,-4.8261c1.4215,-1.2808 3.2389,-1.9211 5.4522,-1.9211zm0,1.8273c-1.3316,0 -2.4652,0.3358 -3.4009,1.0074c-0.9177,0.6716 -1.5115,1.5463 -1.7814,2.624l10.1756,0c-0.252,-1.0933 -0.8188,-1.968 -1.7005,-2.624c-0.8817,-0.6716 -1.9793,-1.0074 -3.2928,-1.0074z"/>
     <path d="m108.215,11.7949c2.303,0 4.139,0.6794 5.506,2.0382c1.368,1.3588 2.006,3.1081 1.917,5.2478l-12.713,0c0.108,1.3276 0.657,2.3741 1.646,3.1394c0.99,0.7653 2.241,1.1479 3.752,1.1479c2.213,0 3.761,-0.7497 4.642,-2.249l2.322,0c-0.612,1.3275 -1.539,2.3427 -2.78,3.0456c-1.242,0.6872 -2.664,1.0308 -4.265,1.0308c-2.213,0 -4.04,-0.6169 -5.479,-1.8508c-1.422,-1.2495 -2.132,-2.8504 -2.132,-4.8027c0,-1.9523 0.71,-3.561 2.132,-4.8261c1.421,-1.2808 3.239,-1.9211 5.452,-1.9211zm0,1.8273c-1.332,0 -2.465,0.3358 -3.401,1.0074c-0.917,0.6716 -1.511,1.5463 -1.781,2.624l10.175,0c-0.252,-1.0933 -0.818,-1.968 -1.7,-2.624c-0.882,-0.6716 -1.979,-1.0074 -3.293,-1.0074z"/>
     <path d="m126.063,11.7949c2.016,0 3.671,0.6325 4.967,1.8976c1.313,1.2495 1.97,2.8504 1.97,4.8027c0,1.9524 -0.657,3.5611 -1.97,4.8262c-1.314,1.2495 -2.978,1.8742 -4.994,1.8742c-1.259,0 -2.384,-0.2499 -3.373,-0.7497c-0.972,-0.5154 -1.746,-1.2182 -2.322,-2.1085l0,8.4575l-2.24,0l0,-18.7423l2.24,0l-0.027,2.3628c0.576,-0.9058 2.01,-1.6573 2.376,-1.8474c0.989,-0.5154 2.114,-0.7731 3.373,-0.7731zm-0.431,11.5499c1.493,0 2.717,-0.4529 3.67,-1.3588c0.954,-0.9059 1.431,-2.0695 1.431,-3.4908c0,-1.4056 -0.477,-2.5614 -1.431,-3.4673c-0.953,-0.9215 -2.177,-1.3822 -3.67,-1.3822c-1.53,0 -2.799,0.4607 -3.806,1.3822c-1.008,0.9059 -1.512,2.0617 -1.512,3.4673c0,1.4057 0.504,2.5693 1.512,3.4908c1.007,0.9059 2.276,1.3588 3.806,1.3588z"/>
    </mask>
    <path fill="black" d="m713.33951,339.40303c-26.28544,0 -48.0669,-5.06936 -65.34707,-15.20942c-17.28017,-10.14006 -27.86658,-24.39999 -31.76056,-42.77843l31.03019,0c3.89399,11.8294 11.07332,20.28013 21.53935,25.34948c10.70813,5.07071 25.55372,7.60539 44.5381,7.60539c15.3325,0 27.74485,-2.21818 37.23568,-6.65454c9.73565,-4.64736 14.60348,-11.09091 14.60348,-19.32928c0,-5.06936 -2.43459,-9.29472 -7.30241,-12.67474c-4.86647,-3.59102 -10.09949,-6.1257 -15.69769,-7.60539c-5.59685,-1.47834 -15.21077,-3.69652 -28.83906,-6.65319c-3.16497,-0.63435 -5.5982,-1.16184 -7.30241,-1.58519c-30.17808,-6.54904 -50.98705,-12.99124 -62.42556,-19.32928c-11.43851,-6.33669 -17.15844,-16.26576 -17.15844,-29.78584c0,-16.47811 7.42414,-29.36385 22.26973,-38.65857c15.08904,-9.29472 34.80245,-13.94208 59.14022,-13.94208c23.36394,0 42.34697,4.43636 56.95044,13.30773c14.84558,8.66173 24.33777,20.91447 28.47387,36.75823l-30.665,0c-7.30106,-16.68911 -25.31026,-25.03298 -54.02894,-25.03298c-15.81942,0 -28.35349,2.42918 -37.60223,7.28754c-9.24738,4.64736 -13.87175,10.77441 -13.87175,18.37844c0,6.54904 3.77226,11.4074 11.31678,14.57642c7.54452,2.95803 22.63356,6.97104 45.26848,12.04175c10.70813,2.32368 18.73957,4.11851 24.09296,5.38585c5.5982,1.26869 12.16889,3.06352 19.71341,5.3872c7.78933,2.32368 13.50791,4.54186 17.15844,6.65454c3.65053,2.11268 7.42279,4.85836 11.31678,8.23838c3.89399,3.16902 6.57204,6.86554 8.03144,11.09091c1.46075,4.01437 2.19113,8.66173 2.19113,13.94208c0,17.1111 -7.90971,30.31469 -23.72913,39.60941c-15.57596,9.08372 -35.28937,13.62558 -59.14022,13.62558z"/>
    <path fill="black" d="m1064.63581,161.63746l30.30116,0l-59.14022,174.28005l-36.50666,0l-19.71341,-58.6222l-25.92026,-88.40669l-5.47512,0l-25.92026,88.40669l-20.0786,58.6222l-36.50666,0l-59.14022,-174.28005l30.30116,0l18.61784,54.81883l29.2056,92.21006l28.83906,-92.21006l18.61919,-54.81883l37.23568,0l18.61919,54.81883l28.83906,91.89356l29.2056,-91.89356l18.61784,-54.81883z"/>
    <path fill="black" d="m1204.23108,158.15194c31.15192,0 55.97526,9.18922 74.47272,27.56766c18.49611,18.37844 27.1362,42.03859 25.9189,70.97909l-171.94419,0c1.4594,17.95645 8.88219,32.11088 22.26837,42.46194c13.38618,10.35106 30.29981,15.52591 50.7436,15.52591c29.93598,0 50.86533,-10.14006 62.79075,-30.41884l31.39673,0c-8.2749,17.95509 -20.80897,31.68617 -37.60223,41.19324c-16.79325,9.29472 -36.01974,13.94208 -57.67947,13.94208c-29.93598,0 -54.63894,-8.34388 -74.10889,-25.03298c-19.22649,-16.9001 -28.84041,-38.55307 -28.84041,-64.95889c0,-26.40582 9.61392,-48.16428 28.84041,-65.27539c19.22649,-17.32345 43.80772,-25.98383 73.7437,-25.98383zm0,24.71514c-18.01055,0 -33.34305,4.54186 -45.99885,13.62558c-12.41235,9.08372 -20.44378,20.91447 -24.09431,35.4909l137.63002,0c-3.40842,-14.78742 -11.07467,-26.61817 -23.0001,-35.4909c-11.92543,-9.08372 -26.77101,-13.62558 -44.53675,-13.62558z"/>
    <path fill="black" d="m1430.66949,158.15194c31.14921,0 55.98202,9.18922 74.47137,27.56766c18.50288,18.37844 27.13214,42.03859 25.92837,70.97909l-171.9496,0c1.46075,17.95645 8.88625,32.11088 22.26296,42.46194c13.39024,10.35106 30.31063,15.52591 50.74765,15.52591c29.93192,0 50.86938,-10.14006 62.78534,-30.41884l31.4062,0c-8.2776,17.95509 -20.81574,31.68617 -37.60087,41.19324c-16.79866,9.29472 -36.03192,13.94208 -57.68623,13.94208c-29.93192,0 -54.643,-8.34388 -74.10618,-25.03298c-19.23325,-16.9001 -28.83635,-38.55307 -28.83635,-64.95889c0,-26.40582 9.6031,-48.16428 28.83635,-65.27539c19.21973,-17.32345 43.80907,-25.98383 73.74099,-25.98383zm0,24.71514c-18.01596,0 -33.34034,4.54186 -46.0002,13.62558c-12.40288,9.08372 -20.43702,20.91447 -24.0889,35.4909l137.6219,0c-3.40842,-14.78742 -11.06385,-26.61817 -22.99334,-35.4909c-11.92949,-9.08372 -26.76695,-13.62558 -44.53945,-13.62558z"/>
    <path fill="black" d="m1672.07251,158.15194c27.2674,0 49.65209,8.55487 67.18113,25.66598c17.75897,16.9001 26.64522,38.55307 26.64522,64.95889c0,26.40717 -8.88625,48.16564 -26.64522,65.27674c-17.7725,16.9001 -40.27892,25.34948 -67.54632,25.34948c-17.0286,0 -32.24478,-3.38002 -45.62149,-10.14006c-13.14678,-6.97104 -23.61551,-16.47676 -31.4062,-28.5185l0,114.39187l-30.29711,0l0,-253.49887l30.29711,0l-0.36519,31.95804c7.79068,-12.25139 27.18624,-22.4158 32.13657,-24.987c13.37671,-6.97104 28.59289,-10.45656 45.62149,-10.45656zm-5.82949,156.2181c20.19356,0 36.74877,-6.1257 49.63856,-18.37844c12.90332,-12.25274 19.35498,-27.99101 19.35498,-47.21479c0,-19.01143 -6.45166,-34.6442 -19.35498,-46.89695c-12.8898,-12.46374 -29.445,-18.69494 -49.63856,-18.69494c-20.69401,0 -37.85786,6.2312 -51.47803,18.69494c-13.6337,12.25274 -20.45055,27.88551 -20.45055,46.89695c0,19.01279 6.81685,34.75105 20.45055,47.21479c13.62017,12.25274 30.78402,18.37844 51.47803,18.37844z"/>
    <path mask="url(#svg_8)" stroke-width="0.4" stroke="black" d="m713.33951,339.40303c-26.28544,0 -48.0669,-5.06936 -65.34707,-15.20942c-17.28017,-10.14006 -27.86658,-24.39999 -31.76056,-42.77843l31.03019,0c3.89399,11.8294 11.07332,20.28013 21.53935,25.34948c10.70813,5.07071 25.55372,7.60539 44.5381,7.60539c15.3325,0 27.74485,-2.21818 37.23568,-6.65454c9.73565,-4.64736 14.60348,-11.09091 14.60348,-19.32928c0,-5.06936 -2.43459,-9.29472 -7.30241,-12.67474c-4.86647,-3.59102 -10.09949,-6.1257 -15.69769,-7.60539c-5.59685,-1.47834 -15.21077,-3.69652 -28.83906,-6.65319c-3.16497,-0.63435 -5.5982,-1.16184 -7.30241,-1.58519c-30.17808,-6.54904 -50.98705,-12.99124 -62.42556,-19.32928c-11.43851,-6.33669 -17.15844,-16.26576 -17.15844,-29.78584c0,-16.47811 7.42414,-29.36385 22.26973,-38.65857c15.08904,-9.29472 34.80245,-13.94208 59.14022,-13.94208c23.36394,0 42.34697,4.43636 56.95044,13.30773c14.84558,8.66173 24.33777,20.91447 28.47387,36.75823l-30.665,0c-7.30106,-16.68911 -25.31026,-25.03298 -54.02894,-25.03298c-15.81942,0 -28.35349,2.42918 -37.60223,7.28754c-9.24738,4.64736 -13.87175,10.77441 -13.87175,18.37844c0,6.54904 3.77226,11.4074 11.31678,14.57642c7.54452,2.95803 22.63356,6.97104 45.26848,12.04175c10.70813,2.32368 18.73957,4.11851 24.09296,5.38585c5.5982,1.26869 12.16889,3.06352 19.71341,5.3872c7.78933,2.32368 13.50791,4.54186 17.15844,6.65454c3.65053,2.11268 7.42279,4.85836 11.31678,8.23838c3.89399,3.16902 6.57204,6.86554 8.03144,11.09091c1.46075,4.01437 2.19113,8.66173 2.19113,13.94208c0,17.1111 -7.90971,30.31469 -23.72913,39.60941c-15.57596,9.08372 -35.28937,13.62558 -59.14022,13.62558z"/>
    <path mask="url(#svg_8)" stroke-width="0.4" stroke="black" d="m1064.63581,161.63746l30.30116,0l-59.14022,174.28005l-36.50666,0l-19.71341,-58.6222l-25.92026,-88.40669l-5.47512,0l-25.92026,88.40669l-20.0786,58.6222l-36.50666,0l-59.14022,-174.28005l30.30116,0l18.61784,54.81883l29.2056,92.21006l28.83906,-92.21006l18.61919,-54.81883l37.23568,0l18.61919,54.81883l28.83906,91.89356l29.2056,-91.89356l18.61784,-54.81883z"/>
    <path mask="url(#svg_8)" stroke-width="0.4" stroke="black" d="m1204.23108,158.15194c31.15192,0 55.97526,9.18922 74.47272,27.56766c18.49611,18.37844 27.1362,42.03859 25.9189,70.97909l-171.94419,0c1.4594,17.95645 8.88219,32.11088 22.26837,42.46194c13.38618,10.35106 30.29981,15.52591 50.7436,15.52591c29.93598,0 50.86533,-10.14006 62.79075,-30.41884l31.39673,0c-8.2749,17.95509 -20.80897,31.68617 -37.60223,41.19324c-16.79325,9.29472 -36.01974,13.94208 -57.67947,13.94208c-29.93598,0 -54.63894,-8.34388 -74.10889,-25.03298c-19.22649,-16.9001 -28.84041,-38.55307 -28.84041,-64.95889c0,-26.40582 9.61392,-48.16428 28.84041,-65.27539c19.22649,-17.32345 43.80772,-25.98383 73.7437,-25.98383zm0,24.71514c-18.01055,0 -33.34305,4.54186 -45.99885,13.62558c-12.41235,9.08372 -20.44378,20.91447 -24.09431,35.4909l137.63002,0c-3.40842,-14.78742 -11.07467,-26.61817 -23.0001,-35.4909c-11.92543,-9.08372 -26.77101,-13.62558 -44.53675,-13.62558z"/>
    <path mask="url(#svg_8)" stroke-width="0.4" stroke="black" d="m1430.66949,158.15194c31.14921,0 55.98202,9.18922 74.47137,27.56766c18.50288,18.37844 27.13214,42.03859 25.92837,70.97909l-171.9496,0c1.46075,17.95645 8.88625,32.11088 22.26296,42.46194c13.39024,10.35106 30.31063,15.52591 50.74765,15.52591c29.93192,0 50.86938,-10.14006 62.78534,-30.41884l31.4062,0c-8.2776,17.95509 -20.81574,31.68617 -37.60087,41.19324c-16.79866,9.29472 -36.03192,13.94208 -57.68623,13.94208c-29.93192,0 -54.643,-8.34388 -74.10618,-25.03298c-19.23325,-16.9001 -28.83635,-38.55307 -28.83635,-64.95889c0,-26.40582 9.6031,-48.16428 28.83635,-65.27539c19.21973,-17.32345 43.80907,-25.98383 73.74099,-25.98383zm0,24.71514c-18.01596,0 -33.34034,4.54186 -46.0002,13.62558c-12.40288,9.08372 -20.43702,20.91447 -24.0889,35.4909l137.6219,0c-3.40842,-14.78742 -11.06385,-26.61817 -22.99334,-35.4909c-11.92949,-9.08372 -26.76695,-13.62558 -44.53945,-13.62558z"/>
    <path mask="url(#svg_8)" stroke-width="0.4" stroke="black" d="m1672.07251,158.15194c27.2674,0 49.65209,8.55487 67.18113,25.66598c17.75897,16.9001 26.64522,38.55307 26.64522,64.95889c0,26.40717 -8.88625,48.16564 -26.64522,65.27674c-17.7725,16.9001 -40.27892,25.34948 -67.54632,25.34948c-17.0286,0 -32.24478,-3.38002 -45.62149,-10.14006c-13.14678,-6.97104 -23.61551,-16.47676 -31.4062,-28.5185l0,114.39187l-30.29711,0l0,-253.49887l30.29711,0l-0.36519,31.95804c7.79068,-12.25139 27.18624,-22.4158 32.13657,-24.987c13.37671,-6.97104 28.59289,-10.45656 45.62149,-10.45656zm-5.82949,156.2181c20.19356,0 36.74877,-6.1257 49.63856,-18.37844c12.90332,-12.25274 19.35498,-27.99101 19.35498,-47.21479c0,-19.01143 -6.45166,-34.6442 -19.35498,-46.89695c-12.8898,-12.46374 -29.445,-18.69494 -49.63856,-18.69494c-20.69401,0 -37.85786,6.2312 -51.47803,18.69494c-13.6337,12.25274 -20.45055,27.88551 -20.45055,46.89695c0,19.01279 6.81685,34.75105 20.45055,47.21479c13.62017,12.25274 30.78402,18.37844 51.47803,18.37844z"/>
    <path fill-opacity="0.5" fill="#F4793E" d="m45.57519,339.58427l213.89608,-128.35153c10.16982,-6.1027 22.84456,-5.96204 32.88183,0.36113l203.75616,128.37858c20.82791,13.12514 19.67824,44.2189 -2.06399,55.72639l-203.70476,107.81306c-8.99581,4.76097 -19.69853,4.86783 -28.78496,0.28674l-213.94694,-107.84147c-22.48681,-11.33301 -23.64378,-43.40466 -2.03342,-56.37291z"/>
    <path fill-opacity="0.7" fill="#F4793E" d="m17.13703,238.24316l213.8969,-128.35139c10.16847,-6.10216 22.84321,-5.96312 32.88048,0.36045l203.75616,128.37912c20.82926,13.12514 19.67824,44.2189 -2.06264,55.72639l-203.70476,107.81306c-8.99716,4.76097 -19.69988,4.86783 -28.78631,0.28674l-213.9464,-107.83876c-22.48681,-11.33572 -23.64378,-43.40737 -2.03342,-56.37561z"/>
    <path fill="#FF8144" d="m45.57519,136.90204l213.89608,-128.35166c10.16982,-6.10216 22.84456,-5.96326 32.88183,0.36045l203.75616,128.38074c20.82791,13.12379 19.67824,44.2189 -2.06399,55.72504l-203.70476,107.81171c-8.99581,4.76233 -19.69853,4.86918 -28.78496,0.28945l-213.94694,-107.84147c-22.48681,-11.33436 -23.64378,-43.40602 -2.03342,-56.37426z"/>
   </g>
  </g>
 </g>
</svg>